<?xml version="1.0" standalone="no"?>
<!DOCTYPE svg PUBLIC "-//W3C//DTD SVG 20010904//EN"
 "http://www.w3.org/TR/2001/REC-SVG-20010904/DTD/svg10.dtd">
<svg version="1.0" xmlns="http://www.w3.org/2000/svg"
 width="1024.000000pt" height="1024.000000pt" viewBox="0 0 1024.000000 1024.000000"
 preserveAspectRatio="xMidYMid meet">

<g transform="translate(0.000000,1024.000000) scale(0.100000,-0.100000)"
fill="#000000" stroke="none">
<path d="M4880 10160 c-887 -49 -1680 -334 -2375 -855 -401 -301 -762 -700
-1024 -1133 -310 -512 -505 -1086 -578 -1697 -24 -207 -24 -698 0 -905 63
-529 196 -978 427 -1435 501 -996 1385 -1762 2441 -2114 274 -92 554 -154 889
-198 195 -25 745 -25 950 0 702 88 1307 315 1890 708 325 218 684 547 924 842
525 650 838 1403 928 2232 17 158 17 684 0 830 -115 989 -504 1814 -1172 2486
-207 208 -514 460 -541 443 -8 -4 -9 -3 -5 4 4 8 -35 39 -109 87 -545 354
-1119 571 -1756 664 -276 41 -611 56 -889 41z m597 -22 c89 -6 160 -15 157
-20 -3 -4 -1 -8 5 -8 6 0 8 -7 5 -15 -4 -8 -1 -15 4 -15 6 0 9 9 7 20 -3 18 0
19 53 14 76 -8 143 -22 114 -23 -13 -1 -20 -5 -17 -11 9 -15 -8 -12 -32 5 -21
14 -24 14 -43 -5 -19 -19 -40 -27 -40 -14 0 4 7 12 15 18 13 9 11 11 -11 13
-20 1 -23 -1 -13 -8 11 -7 9 -10 -8 -15 -13 -4 -20 -11 -16 -17 4 -7 -12 -8
-48 -4 -143 17 -462 29 -619 24 -656 -23 -1237 -168 -1789 -446 -155 -78 -325
-176 -436 -251 -41 -28 -81 -48 -87 -44 -7 4 -8 3 -4 -4 4 -7 -10 -23 -36 -39
-24 -16 -91 -66 -148 -112 -270 -217 -384 -330 -664 -661 -11 -14 -67 -90
-125 -170 -57 -80 -108 -144 -113 -142 -5 1 -7 -2 -3 -8 7 -11 -42 -100 -56
-100 -5 0 -8 -3 -7 -7 3 -16 -25 -62 -35 -56 -6 3 -7 1 -4 -4 8 -13 -50 -123
-66 -124 -7 -1 -16 -1 -20 0 -5 1 -6 -3 -2 -9 3 -6 11 -8 16 -5 13 8 12 4 -10
-37 -10 -21 -22 -34 -26 -30 -3 4 -6 2 -4 -3 1 -6 -1 -19 -5 -30 -4 -11 -12
-32 -18 -47 -6 -16 -14 -28 -19 -28 -5 0 -8 -3 -7 -7 4 -19 -15 -62 -25 -56
-6 3 -7 1 -3 -5 4 -6 1 -23 -7 -38 -13 -24 -15 -25 -30 -9 -9 9 -17 12 -17 6
0 -5 7 -14 15 -18 13 -8 12 -17 -6 -72 -17 -49 -25 -61 -38 -56 -12 5 -13 3
-5 -5 13 -13 6 -63 -7 -54 -5 3 -6 -3 -2 -12 4 -11 2 -15 -4 -11 -6 4 -8 -3
-5 -18 2 -15 0 -25 -7 -25 -6 0 -10 -3 -10 -7 5 -29 -3 -41 -21 -36 -16 4 -20
1 -18 -20 1 -14 6 -23 10 -21 4 3 8 -2 8 -11 0 -9 -4 -13 -10 -10 -6 3 -7 -1
-4 -10 4 -9 -1 -21 -11 -29 -10 -7 -16 -20 -13 -28 4 -8 3 -30 -1 -49 l-8 -34
-8 28 c-4 15 -11 27 -16 27 -5 0 -1 -16 8 -36 13 -27 14 -37 5 -43 -7 -4 -11
-16 -10 -27 3 -21 -14 -33 -21 -13 -2 6 1 9 7 5 7 -4 5 8 -3 28 -19 45 -19 57
0 32 16 -22 20 -10 5 14 -5 8 -13 11 -17 6 -10 -10 -11 -66 0 -59 9 5 9 0 1
-22 -5 -13 -8 -14 -15 -3 -7 10 -9 9 -9 -4 0 -10 -5 -18 -11 -18 -5 0 -7 5 -4
10 4 6 8 26 11 45 2 18 9 46 16 62 6 15 10 34 9 42 -1 8 2 10 10 5 7 -4 10 -3
5 4 -3 6 -1 31 6 57 9 34 16 44 28 40 12 -5 13 -4 2 6 -15 16 -16 33 0 23 7
-4 8 -3 4 4 -7 11 39 162 52 172 4 3 7 11 8 18 3 38 5 43 13 38 5 -3 9 4 9 17
0 21 44 133 74 189 12 22 17 25 28 15 12 -10 12 -9 1 5 -11 15 -6 31 34 113
26 52 52 95 58 95 6 0 8 3 4 6 -13 14 149 285 276 463 164 228 408 498 607
672 184 161 462 365 482 353 6 -4 8 -3 5 3 -8 12 220 149 398 238 193 97 433
198 472 199 18 0 28 3 23 6 -6 4 36 21 92 39 57 18 114 37 128 42 94 32 434
105 575 123 22 2 79 10 126 17 47 6 101 10 121 7 20 -2 35 0 32 4 -11 18 534
23 753 6z m366 -72 c37 1 67 -1 67 -6 0 -5 -24 -8 -52 -7 -29 1 -80 -2 -113
-6 l-60 -7 40 14 c22 8 34 14 27 15 -7 1 -10 6 -6 13 5 8 10 7 18 -4 8 -11 28
-14 79 -12z m50 17 c-7 -2 -19 -2 -25 0 -7 3 -2 5 12 5 14 0 19 -2 13 -5z m92
-15 c44 -13 51 -14 80 -17 17 -1 18 -3 5 -11 -12 -8 -12 -10 -1 -10 8 0 11 -3
8 -6 -4 -4 -13 -1 -22 6 -14 11 -33 10 -87 -6 -10 -3 -18 -1 -18 5 0 6 14 11
31 11 19 0 28 4 23 11 -3 6 -15 9 -25 6 -11 -3 -19 -1 -19 4 0 4 -7 6 -15 3
-8 -4 -13 -10 -10 -14 3 -4 -1 -10 -9 -13 -10 -4 -13 2 -12 19 1 27 13 29 71
12z m-305 -37 c648 -87 1240 -307 1774 -658 258 -169 450 -327 667 -549 321
-329 543 -644 740 -1049 222 -457 346 -919 390 -1450 16 -199 6 -626 -21 -825
-172 -1299 -921 -2404 -2084 -3074 -492 -284 -1079 -465 -1675 -517 -198 -17
-675 -6 -866 20 -915 125 -1702 499 -2345 1115 -748 718 -1187 1634 -1271
2651 -15 185 -7 649 15 815 97 739 374 1414 811 1975 490 630 1164 1105 1930
1360 335 112 605 166 1040 209 22 2 198 2 390 1 287 -3 378 -7 505 -24z m155
9 c-11 -5 -36 -8 -55 -8 l-35 1 40 7 c57 10 74 10 50 0z m45 -20 c8 -5 11 -10
5 -10 -5 0 -17 5 -25 10 -8 5 -10 10 -5 10 6 0 17 -5 25 -10z m155 0 c-4 -6
-11 -8 -16 -5 -5 4 -9 2 -9 -4 0 -5 12 -14 28 -20 25 -10 25 -11 2 -6 -14 3
-43 8 -65 12 l-40 6 40 13 c51 15 68 17 60 4z m160 0 c8 -13 -5 -13 -25 0 -13
8 -13 10 2 10 9 0 20 -4 23 -10z m-268 -6 c-3 -3 -12 -4 -19 -1 -8 3 -5 6 6 6
11 1 17 -2 13 -5z m308 -4 c3 -6 -1 -7 -9 -4 -18 7 -21 14 -7 14 6 0 13 -4 16
-10z m91 -27 c-7 -7 -65 7 -71 17 -3 4 13 3 35 -2 23 -6 39 -13 36 -15z m-221
-3 c3 -6 -4 -10 -17 -10 -18 0 -20 2 -8 10 19 12 18 12 25 0z m285 -10 c13 -8
13 -10 -2 -10 -9 0 -20 5 -23 10 -8 13 5 13 25 0z m-66 -8 c2 -4 -5 -9 -17 -9
-17 -2 -19 0 -7 7 18 12 18 12 24 2z m-114 -12 c18 -12 2 -12 -25 0 -13 6 -15
9 -5 9 8 0 22 -4 30 -9z m250 -10 c0 -5 -2 -10 -4 -10 -3 0 -8 5 -11 10 -3 6
-1 10 4 10 6 0 11 -4 11 -10z m-120 -15 c10 -12 9 -15 -8 -15 -11 0 -22 7 -26
15 -3 9 0 15 8 15 7 0 19 -7 26 -15z m160 11 c0 -3 -4 -8 -10 -11 -5 -3 -10
-1 -10 4 0 6 5 11 10 11 6 0 10 -2 10 -4z m-98 -38 c-7 -7 -16 -6 -29 1 -16
11 -15 11 6 5 17 -4 21 -3 16 6 -6 9 -4 11 4 5 9 -5 9 -11 3 -17z m181 5 c-7
-2 -19 -2 -25 0 -7 3 -2 5 12 5 14 0 19 -2 13 -5z m37 -7 c0 -3 -4 -8 -10 -11
-5 -3 -10 -1 -10 4 0 6 5 11 10 11 6 0 10 -2 10 -4z m-85 -46 c3 -6 -1 -7 -9
-4 -18 7 -21 14 -7 14 6 0 13 -4 16 -10z m-5375 -2576 c0 -8 -4 -12 -10 -9 -5
3 -10 10 -10 16 0 5 5 9 10 9 6 0 10 -7 10 -16z m-88 -315 c-5 -13 -15 -56
-22 -96 -11 -70 -12 -72 -36 -63 -19 7 -24 6 -24 -5 0 -8 -4 -15 -9 -15 -5 0
-11 -6 -14 -12 -2 -7 -2 -4 0 7 2 11 6 40 9 63 5 50 24 75 45 61 23 -14 29
-11 29 19 -1 26 -1 26 -15 8 -8 -11 -15 -15 -15 -10 0 6 7 19 15 30 11 15 15
16 15 4 1 -10 4 -8 9 5 11 27 4 37 -20 25 -24 -14 -26 5 -1 19 26 15 45 -8 34
-40z m-66 -27 c-18 -16 -18 -16 -6 6 6 13 14 21 18 18 3 -4 -2 -14 -12 -24z
m24 -184 c0 -12 -8 -30 -17 -40 -15 -17 -15 -20 -3 -28 8 -6 11 -10 5 -10 -25
0 -37 17 -26 38 6 11 11 30 11 41 0 12 7 21 15 21 9 0 15 -9 15 -22z m-50 -33
c-16 -19 -27 -19 -27 0 0 8 4 12 8 9 4 -2 11 1 14 7 4 5 9 8 12 5 3 -3 0 -12
-7 -21z m1 -63 c5 7 9 9 9 3 0 -16 -14 -30 -31 -31 -11 -1 -16 7 -16 22 0 20
1 21 15 8 12 -13 16 -13 23 -2z m21 -48 c-6 -11 -11 -13 -16 -5 -4 6 -2 11 3
11 6 0 12 10 12 23 1 16 3 17 6 5 2 -10 0 -25 -5 -34z m-2 -44 c0 -5 -2 -10
-4 -10 -3 0 -8 5 -11 10 -3 6 -1 10 4 10 6 0 11 -4 11 -10z m-13 -77 c-3 -10
-5 -4 -5 12 0 17 2 24 5 18 2 -7 2 -21 0 -30z m-80 -235 c-3 -8 -6 -5 -6 6 -1
11 2 17 5 13 3 -3 4 -12 1 -19z"/>
<path d="M5488 10113 c7 -3 16 -2 19 1 4 3 -2 6 -13 5 -11 0 -14 -3 -6 -6z"/>
<path d="M5550 10091 c8 -6 11 -11 5 -12 -5 0 1 -5 15 -9 59 -19 95 -4 49 21
-17 8 -20 8 -14 -1 5 -9 1 -10 -16 -5 -57 18 -55 18 -39 6z"/>
<path d="M5488 10073 c7 -3 16 -2 19 1 4 3 -2 6 -13 5 -11 0 -14 -3 -6 -6z"/>
<path d="M4508 10063 c7 -3 16 -2 19 1 4 3 -2 6 -13 5 -11 0 -14 -3 -6 -6z"/>
<path d="M1260 7706 c0 -2 8 -10 18 -17 15 -13 16 -12 3 4 -13 16 -21 21 -21
13z"/>
<path d="M1106 7227 c3 -10 9 -15 12 -12 3 3 0 11 -7 18 -10 9 -11 8 -5 -6z"/>
<path d="M1095 7150 c3 -5 8 -10 11 -10 2 0 4 5 4 10 0 6 -5 10 -11 10 -5 0
-7 -4 -4 -10z"/>
<path d="M5043 9943 c48 -2 126 -2 175 0 48 1 8 3 -88 3 -96 0 -136 -2 -87 -3z"/>
<path d="M4798 9933 c18 -2 45 -2 60 0 15 2 0 4 -33 4 -33 0 -45 -2 -27 -4z"/>
<path d="M5363 9933 c20 -2 54 -2 75 0 20 2 3 4 -38 4 -41 0 -58 -2 -37 -4z"/>
<path d="M4678 9923 c12 -2 30 -2 40 0 9 3 -1 5 -23 4 -22 0 -30 -2 -17 -4z"/>
<path d="M5513 9923 c15 -2 37 -2 50 0 12 2 0 4 -28 4 -27 0 -38 -2 -22 -4z"/>
<path d="M4588 9913 c6 -2 18 -2 25 0 6 3 1 5 -13 5 -14 0 -19 -2 -12 -5z"/>
<path d="M5608 9913 c12 -2 30 -2 40 0 9 3 -1 5 -23 4 -22 0 -30 -2 -17 -4z"/>
<path d="M4508 9903 c6 -2 18 -2 25 0 6 3 1 5 -13 5 -14 0 -19 -2 -12 -5z"/>
<path d="M5810 9885 c74 -13 142 -24 150 -23 26 1 -162 36 -225 42 -33 3 1 -6
75 -19z"/>
<path d="M4438 9893 c7 -3 16 -2 19 1 4 3 -2 6 -13 5 -11 0 -14 -3 -6 -6z"/>
<path d="M4378 9883 c7 -3 16 -2 19 1 4 3 -2 6 -13 5 -11 0 -14 -3 -6 -6z"/>
<path d="M4328 9873 c7 -3 16 -2 19 1 4 3 -2 6 -13 5 -11 0 -14 -3 -6 -6z"/>
<path d="M4228 9853 c7 -3 16 -2 19 1 4 3 -2 6 -13 5 -11 0 -14 -3 -6 -6z"/>
<path d="M6125 9820 c331 -84 550 -166 862 -322 142 -71 161 -83 150 -97 -10
-14 -10 -14 4 -3 14 10 18 10 23 -3 3 -8 0 -15 -6 -15 -6 0 -8 -3 -5 -6 4 -4
13 -2 20 5 15 12 50 5 42 -9 -7 -11 32 -43 43 -36 14 8 43 -4 37 -15 -3 -4
-12 -6 -19 -3 -8 3 -17 1 -21 -5 -4 -7 0 -8 11 -4 13 5 15 3 9 -7 -5 -8 -4
-11 3 -6 6 3 13 2 17 -3 3 -5 14 -9 25 -8 10 1 16 5 14 9 -3 4 -1 8 5 8 14 0
32 -35 23 -45 -4 -5 -1 -5 6 -1 7 4 9 12 6 18 -4 7 -2 8 5 4 6 -4 9 -12 5 -17
-3 -6 2 -19 11 -29 18 -20 4 -23 -25 -6 -12 7 -13 6 -3 -4 21 -23 53 -23 53 0
0 12 -7 20 -17 20 -9 0 -14 3 -10 6 10 10 48 -7 41 -18 -4 -6 -2 -8 4 -4 6 3
13 2 17 -4 3 -5 -2 -10 -12 -11 -13 0 -14 -2 -4 -6 10 -4 8 -9 -10 -20 l-24
-14 25 4 c14 3 33 8 43 12 10 4 17 3 17 -4 0 -6 -4 -11 -9 -11 -6 0 -22 -11
-37 -25 -15 -14 -24 -25 -20 -25 4 0 -6 -17 -22 -37 -16 -21 -30 -41 -31 -45
0 -5 -2 -11 -2 -15 -1 -5 -4 7 -8 26 -6 34 -7 34 -24 16 -15 -14 -18 -30 -15
-74 2 -47 0 -56 -14 -59 -11 -2 -18 3 -18 12 0 9 -7 16 -15 16 -11 0 -15 12
-16 43 -2 30 -5 18 -12 -39 -9 -74 -12 -83 -36 -95 -38 -19 -71 -50 -71 -67 0
-11 -11 -14 -50 -10 l-51 5 5 -81 c4 -66 3 -74 -5 -46 -6 19 -10 43 -10 53 0
9 -7 17 -15 17 -8 0 -14 5 -14 10 0 6 5 10 10 10 6 0 10 9 10 20 0 36 -18 21
-26 -22 -7 -43 -8 -43 -18 -15 -5 15 -16 27 -23 27 -7 0 -13 5 -13 12 0 6 -3
8 -6 5 -8 -8 15 -67 26 -67 4 0 11 -11 14 -24 3 -13 9 -31 12 -40 4 -11 0 -16
-14 -16 -12 0 -33 -17 -51 -39 -29 -36 -34 -38 -87 -39 -30 0 -59 -3 -62 -7
-3 -3 1 -20 10 -38 9 -18 16 -50 15 -72 -1 -38 -3 -40 -19 -26 -21 18 -23 37
-5 44 6 2 9 8 5 12 -8 8 -28 -9 -46 -40 -11 -19 -11 -18 -12 8 0 16 7 30 15
33 21 8 19 27 -5 55 l-20 24 6 -37 6 -38 -37 0 c-37 0 -82 -29 -57 -38 22 -7
13 -20 -20 -28 -32 -7 -32 -8 -8 -14 24 -6 24 -7 -7 -14 -34 -8 -42 -20 -20
-30 10 -5 10 -7 0 -12 -7 -3 -13 -14 -13 -24 0 -10 -7 -20 -15 -24 -9 -3 -15
0 -15 9 0 12 -14 15 -57 15 -32 0 -53 -4 -47 -8 6 -4 14 -14 17 -22 4 -12 6
-11 6 3 1 20 9 21 46 7 22 -9 26 -15 21 -35 l-6 -25 110 0 c67 0 110 4 110 10
0 6 7 10 15 10 8 0 15 -7 15 -15 0 -8 6 -15 13 -15 9 0 8 -3 -2 -9 -11 -7 -11
-9 0 -14 10 -4 10 -6 2 -6 -7 -1 -13 -6 -13 -12 0 -5 4 -8 8 -5 5 3 9 -1 9 -9
0 -11 -5 -11 -19 -4 -15 8 -17 13 -7 25 8 10 8 14 0 14 -6 0 -10 5 -9 10 2 7
-49 11 -139 13 -77 1 -136 -1 -130 -5 7 -4 -8 -7 -33 -7 -41 1 -42 2 -15 9 39
10 2 13 -45 4 -22 -5 -28 -9 -18 -15 9 -6 5 -9 -14 -9 -29 0 -46 15 -26 23 10
4 -32 2 -62 -2 -3 -1 2 -6 10 -11 11 -7 11 -10 2 -10 -7 0 -10 -5 -6 -11 5 -8
-3 -10 -24 -7 -19 3 -29 0 -25 -5 4 -6 -3 -8 -15 -5 -13 4 -20 2 -16 -4 3 -5
0 -8 -7 -7 -8 2 -24 -2 -36 -9 -12 -6 -31 -13 -42 -15 -11 -2 -24 -6 -27 -10
-12 -11 -24 -8 -22 5 4 16 -40 19 -46 2 -3 -7 2 -15 10 -18 7 -3 13 0 11 6 -1
6 5 13 13 15 13 4 13 3 0 -6 -13 -10 -13 -11 0 -11 13 0 13 -1 0 -10 -8 -5
-24 -7 -35 -4 -16 4 -17 3 -5 -5 10 -8 11 -11 2 -11 -7 0 -30 -11 -51 -24 -21
-14 -41 -22 -44 -19 -3 3 -17 -6 -30 -21 -13 -14 -27 -23 -30 -21 -4 3 -5 2
-2 -2 3 -3 -5 -13 -16 -21 -12 -8 -24 -11 -28 -5 -13 19 -36 8 -35 -18 1 -16
-7 -31 -19 -38 -18 -12 -19 -11 -14 8 3 12 1 21 -3 21 -5 0 -10 -10 -12 -22
-2 -13 -10 -23 -18 -23 -8 0 -15 -8 -15 -19 0 -10 -15 -36 -34 -57 -27 -29
-38 -36 -48 -27 -9 7 -13 7 -13 -1 0 -6 6 -11 13 -11 7 -1 5 -6 -5 -14 -10 -7
-18 -18 -18 -25 0 -6 -4 -11 -10 -11 -5 0 -10 6 -10 13 0 8 -3 8 -9 -2 -5 -8
-7 -21 -3 -29 4 -11 1 -14 -10 -9 -13 4 -16 1 -12 -18 3 -16 -2 -28 -16 -38
-11 -7 -17 -18 -12 -23 4 -4 0 -3 -9 3 -12 10 -19 8 -32 -7 -18 -21 -9 -28 11
-8 16 16 16 -4 0 -21 -11 -11 -10 -12 2 -6 8 4 5 -2 -7 -13 -13 -13 -29 -20
-40 -16 -17 5 -17 5 0 -9 24 -20 14 -62 -11 -52 -14 5 -15 4 -4 -6 14 -15 16
-33 2 -24 -6 4 -7 -1 -3 -11 6 -15 4 -15 -21 1 -20 13 -24 20 -14 26 7 4 10
10 7 13 -2 3 -11 1 -19 -4 -11 -7 -12 -12 -3 -21 9 -9 8 -15 -3 -27 -12 -11
-13 -17 -3 -23 7 -4 19 -1 27 7 17 18 25 13 16 -10 -3 -9 -14 -16 -23 -16 -14
0 -14 -2 -1 -10 11 -7 11 -10 2 -10 -7 0 -10 -4 -7 -10 3 -5 1 -10 -5 -10 -7
0 -10 -7 -6 -15 3 -9 0 -15 -10 -15 -8 0 -19 10 -23 23 -9 21 -9 21 -17 3 -5
-12 -3 -21 4 -24 6 -2 8 -11 5 -20 -5 -14 -3 -15 8 -4 18 17 28 15 24 -5 -2
-10 -4 -24 -4 -30 -1 -7 -6 -13 -11 -13 -7 0 -7 7 0 23 10 20 10 20 -3 5 -8
-10 -17 -18 -21 -18 -3 0 -6 8 -6 18 0 14 -2 15 -10 2 -5 -8 -10 -10 -10 -4 0
5 5 15 12 22 9 9 9 15 0 24 -9 9 -14 6 -22 -13 -10 -22 -10 -23 -6 -1 2 12 0
22 -5 22 -5 0 -9 10 -9 21 0 18 -2 20 -15 9 -17 -14 -12 -63 8 -88 7 -9 7 -16
-1 -24 -15 -15 -31 -1 -25 23 3 11 -4 39 -16 63 -21 40 -22 49 -12 132 14 128
31 196 45 191 7 -3 13 1 13 8 0 7 -6 11 -13 8 -9 -3 -11 2 -7 17 5 20 6 20 25
3 17 -16 18 -16 12 0 -3 9 -10 17 -15 17 -5 0 -9 7 -9 16 0 9 5 12 12 8 7 -4
8 -3 4 5 -9 14 12 81 25 81 6 0 7 5 4 10 -3 6 -2 10 4 10 6 0 8 7 5 15 -5 11
-1 14 12 9 14 -4 15 -3 6 3 -10 8 -11 15 -1 36 7 15 16 27 21 27 4 0 7 3 6 8
-5 15 25 71 35 65 6 -3 7 -1 3 5 -3 6 3 29 15 51 22 43 32 53 23 24 -5 -17 -5
-17 6 0 6 9 9 21 5 26 -8 14 27 81 38 74 6 -3 7 -1 3 6 -10 15 15 82 27 74 6
-3 7 -1 3 5 -4 7 5 58 19 115 38 149 43 301 16 434 -28 134 -71 254 -138 386
-54 106 -161 279 -180 290 -6 4 19 -37 54 -91 185 -278 286 -586 268 -817 -14
-192 -52 -311 -176 -559 -98 -193 -148 -330 -174 -471 -19 -103 -32 -584 -20
-732 l7 -88 107 310 c121 349 155 434 226 554 60 101 204 256 319 343 44 33
80 65 78 70 -1 5 2 7 7 4 5 -3 42 12 83 33 96 52 231 97 348 115 97 15 383 30
392 20 8 -8 -57 -209 -105 -326 -168 -405 -460 -664 -907 -804 -259 -81 -292
-98 -362 -188 -107 -136 -180 -479 -164 -765 6 -109 5 -116 -16 -138 -28 -30
-85 -31 -115 -3 -20 18 -22 29 -22 197 0 371 -67 628 -195 752 -28 27 -39 32
-48 23 -9 -9 -8 -12 5 -12 10 0 17 -8 17 -20 0 -14 -6 -20 -22 -19 -17 1 -19
2 -5 6 21 6 22 19 1 27 -13 5 -14 9 -5 20 18 22 -52 58 -199 101 -315 93 -507
200 -686 380 -156 158 -263 342 -350 598 -25 73 -42 116 -38 97 13 -71 77
-239 134 -355 82 -166 215 -336 342 -439 26 -21 45 -42 42 -47 -3 -5 1 -7 8
-4 7 3 25 -6 41 -20 15 -14 27 -23 27 -19 0 3 7 1 15 -6 8 -7 47 -29 86 -50
73 -38 80 -46 57 -62 -10 -8 -10 -9 2 -5 8 2 14 10 12 17 -2 8 3 10 15 5 10
-4 26 -10 35 -12 10 -3 15 -10 11 -16 -3 -5 -1 -7 5 -3 14 8 62 -11 79 -32 8
-9 11 -11 7 -3 -5 11 -3 13 10 8 10 -4 22 -7 26 -7 5 0 7 -10 5 -21 -4 -20 -3
-20 13 -6 15 14 22 14 43 3 13 -7 31 -10 38 -8 8 3 11 0 7 -7 -4 -6 -2 -9 7
-5 7 2 27 -1 43 -7 16 -7 33 -11 37 -10 16 3 116 -52 110 -62 -3 -5 -8 -5 -12
2 -7 11 -41 15 -73 9 -9 -2 -16 2 -15 7 1 6 11 10 21 9 18 -1 18 0 1 13 -22
15 -39 17 -30 3 3 -5 2 -10 -4 -10 -5 0 -13 5 -16 10 -3 6 -10 10 -16 10 -5 0
-9 -4 -9 -10 0 -5 7 -10 15 -10 19 0 15 -22 -5 -32 -10 -5 -6 -7 10 -5 19 1
26 -3 28 -20 2 -13 8 -23 13 -23 6 0 7 -5 4 -11 -4 -6 -13 -8 -20 -5 -7 2 -16
-1 -19 -9 -3 -8 3 -15 14 -17 30 -5 8 -31 -27 -32 -19 -1 -31 -8 -38 -23 -5
-13 -15 -23 -22 -23 -6 0 -13 10 -15 23 l-3 22 -20 -22 c-11 -14 -31 -23 -47
-23 -18 0 -28 -5 -28 -15 0 -8 -9 -19 -20 -25 -24 -13 -27 -40 -4 -40 20 0 13
-24 -9 -28 -12 -3 -18 7 -23 37 -4 25 -12 41 -20 41 -17 0 -18 -22 -3 -37 8
-8 4 -15 -12 -27 -13 -9 -29 -16 -36 -16 -8 0 -13 -13 -13 -34 0 -26 -5 -36
-20 -41 -11 -3 -20 -10 -20 -14 0 -3 -10 -19 -21 -33 -17 -21 -28 -26 -49 -21
-32 6 -47 -11 -29 -33 10 -12 9 -13 -5 -8 -9 3 -16 17 -16 30 0 17 -6 24 -20
24 -17 0 -20 -7 -20 -40 0 -33 -3 -40 -20 -40 -11 0 -20 5 -20 10 0 6 -8 5
-20 -2 -14 -9 -20 -24 -20 -50 0 -31 -4 -38 -20 -38 -11 0 -20 7 -20 15 0 11
-11 15 -40 15 -44 0 -58 -26 -17 -32 l22 -3 -22 -20 c-13 -11 -23 -25 -23 -32
0 -8 -14 -13 -40 -13 -43 0 -52 -14 -23 -36 17 -13 17 -15 1 -28 -10 -7 -19
-24 -19 -37 -1 -17 -3 -19 -6 -6 -7 25 -59 23 -66 -3 -4 -16 -11 -19 -30 -15
-14 4 -34 2 -46 -4 -17 -10 -20 -9 -15 4 4 8 10 15 15 15 5 0 9 5 9 10 0 6
-13 10 -30 10 -28 0 -30 -2 -30 -39 0 -33 -4 -40 -22 -44 -13 -2 -5 -2 17 0
51 5 39 -7 -17 -17 -27 -5 -50 -4 -63 3 -11 6 -31 12 -45 13 -22 2 -23 1 -5
-6 11 -5 28 -11 38 -14 24 -8 12 -26 -16 -25 -21 0 -21 1 -2 10 17 8 15 8 -7
4 -15 -3 -58 1 -95 10 -407 89 -1011 100 -1468 25 -242 -39 -582 -139 -780
-230 -36 -16 -68 -30 -72 -30 -3 0 -4 96 -1 213 3 129 2 175 -2 117 -4 -52 -8
-152 -9 -222 l-1 -128 58 26 c293 132 601 217 962 266 143 19 209 22 495 22
283 0 353 -3 490 -21 443 -61 856 -164 1360 -342 94 -32 294 -103 445 -156
595 -209 1009 -313 1480 -372 203 -25 725 -25 922 0 613 77 1166 284 1691 634
137 92 157 108 157 131 0 89 -24 379 -41 502 -100 719 -401 1401 -858 1945
-110 131 -282 306 -294 298 -6 -3 -7 -1 -3 5 7 12 -106 119 -242 229 -372 300
-811 540 -1273 694 -125 42 -418 119 -447 118 -9 0 51 -18 133 -39z m1130
-470 c3 -5 1 -10 -4 -10 -6 0 -11 5 -11 10 0 6 2 10 4 10 3 0 8 -4 11 -10z
m70 -39 c7 -12 -12 -24 -25 -16 -11 7 -4 25 10 25 5 0 11 -4 15 -9z m210 -153
c27 -12 32 -23 15 -33 -6 -4 -9 -1 -8 6 2 6 -3 14 -11 17 -8 2 -11 0 -7 -6 8
-14 -7 -23 -22 -13 -7 4 -10 15 -6 24 7 20 6 20 39 5z m38 -77 c-17 -14 -33
-34 -37 -44 -9 -27 -24 -12 -18 19 3 14 14 29 27 34 13 5 26 14 30 20 3 5 11
7 17 4 7 -4 -1 -17 -19 -33z m67 -15 c-7 -7 -14 -6 -22 3 -11 10 -9 11 7 5
l20 -7 -20 24 -20 24 23 -19 c15 -13 19 -23 12 -30z m-173 -58 c-3 -7 -5 -2
-5 12 0 14 2 19 5 13 2 -7 2 -19 0 -25z m233 22 c0 -5 -5 -10 -11 -10 -5 0 -7
5 -4 10 3 6 8 10 11 10 2 0 4 -4 4 -10z m24 -36 c5 -14 4 -15 -9 -4 -17 14
-19 20 -6 20 5 0 12 -7 15 -16z m-179 -23 c-3 -6 -14 -11 -23 -11 -15 1 -15 2
2 15 21 16 32 13 21 -4z m216 5 c-8 -10 -9 -16 -1 -21 5 -3 10 -1 10 6 0 16
13 3 16 -16 3 -20 -9 -19 -29 3 -13 14 -14 21 -5 30 17 17 23 15 9 -2z m-321
-6 c0 -5 -5 -10 -11 -10 -5 0 -7 5 -4 10 3 6 8 10 11 10 2 0 4 -4 4 -10z m378
-59 c-2 -19 4 -24 13 -11 9 12 10 12 7 1 -6 -22 -22 -23 -35 -3 -9 15 -8 19 2
19 8 0 14 -3 13 -6z m-531 -23 c-3 -8 -6 -5 -6 6 -1 11 2 17 5 13 3 -3 4 -12
1 -19z m608 -38 c16 -17 16 -20 3 -15 -9 4 -19 13 -22 21 -7 19 -2 18 19 -6z
m-615 -46 c0 -8 -5 -12 -10 -9 -6 4 -8 11 -5 16 9 14 15 11 15 -7z m706 -26
c3 -4 -1 -5 -10 -4 -8 1 -18 5 -22 8 -3 4 1 5 10 4 8 -1 18 -5 22 -8z m-786
-8 c0 -5 -7 -7 -15 -4 -8 4 -15 8 -15 10 0 2 7 4 15 4 8 0 15 -4 15 -10z m-62
-28 c-23 -4 -23 -20 -1 -24 15 -3 15 -4 0 -17 -15 -12 -17 -11 -17 3 0 9 -5
16 -10 16 -6 0 -6 7 2 19 7 12 18 17 27 13 14 -6 14 -7 -1 -10z m866 0 c3 -5
-1 -9 -9 -9 -8 0 -12 4 -9 9 3 4 7 8 9 8 2 0 6 -4 9 -8z m-1029 -172 c3 -5 1
-10 -4 -10 -6 0 -11 5 -11 10 0 6 2 10 4 10 3 0 8 -4 11 -10z m-244 -249 c7
11 9 10 9 -3 0 -10 -7 -18 -15 -18 -8 0 -15 8 -14 18 0 12 2 13 6 3 5 -11 7
-11 14 0z m69 -21 c0 -16 -4 -30 -10 -30 -5 0 -10 14 -10 30 0 17 5 30 10 30
6 0 10 -13 10 -30z m-120 16 c0 -9 -39 -13 -51 -5 -10 6 -4 9 19 9 17 0 32 -2
32 -4z m180 -42 c0 -16 -16 -19 -25 -4 -8 13 4 32 16 25 5 -4 9 -13 9 -21z
m-550 -64 c0 -5 -4 -10 -10 -10 -5 0 -10 5 -10 10 0 6 5 10 10 10 6 0 10 -4
10 -10z m556 -2 c3 -4 -4 -12 -16 -18 -25 -13 -35 -8 -27 14 6 14 30 16 43 4z
m-130 -94 c-4 -9 -9 -15 -11 -12 -3 3 -3 13 1 22 4 9 9 15 11 12 3 -3 3 -13
-1 -22z m-936 -139 c0 -1 -6 -7 -13 -13 -10 -8 -13 -6 -13 7 0 11 6 17 13 14
7 -3 13 -6 13 -8z m883 -19 c3 -8 0 -17 -7 -19 -10 -4 -12 1 -9 14 6 23 9 24
16 5z m-953 -39 c0 -2 -8 -11 -18 -20 -15 -14 -19 -15 -19 -2 0 8 4 12 8 9 4
-2 10 0 14 6 6 10 15 14 15 7z m927 -29 c-3 -8 -6 -5 -6 6 -1 11 2 17 5 13 3
-3 4 -12 1 -19z m-86 -171 c-10 -9 -11 -8 -5 6 3 10 9 15 12 12 3 -3 0 -11 -7
-18z m-1 -24 c-8 -4 -21 -13 -28 -22 -11 -14 -11 -13 -2 7 6 12 18 22 28 21
14 0 14 -2 2 -6z m-90 -117 c0 -2 -8 -10 -17 -17 -16 -13 -17 -12 -4 4 13 16
21 21 21 13z m-70 -90 c0 -2 -8 -10 -17 -17 -16 -13 -17 -12 -4 4 13 16 21 21
21 13z m-1020 -20 c0 -2 -7 -7 -16 -10 -8 -3 -12 -2 -9 4 6 10 25 14 25 6z
m1070 -16 c8 -5 11 -10 5 -10 -5 0 -17 5 -25 10 -8 5 -10 10 -5 10 6 0 17 -5
25 -10z m-123 -45 c0 -8 -4 -12 -9 -9 -5 3 -6 10 -3 15 9 13 12 11 12 -6z
m-63 -60 c-4 -8 -11 -15 -16 -15 -6 0 -5 6 2 15 7 8 14 15 16 15 2 0 1 -7 -2
-15z m-64 -49 c0 -2 -7 -7 -16 -10 -8 -3 -12 -2 -9 4 6 10 25 14 25 6z m-910
-16 c0 -5 5 -9 11 -7 6 1 14 -5 16 -13 4 -12 3 -13 -5 -1 -8 11 -13 8 -24 -14
l-15 -27 0 36 c0 20 4 36 9 36 4 0 8 -4 8 -10z m-123 -52 c-2 -13 -4 -5 -4 17
-1 22 1 32 4 23 2 -10 2 -28 0 -40z m63 6 c0 -9 -11 -29 -25 -46 -16 -18 -25
-24 -25 -15 0 9 -5 18 -10 20 -6 3 -5 4 2 3 17 -3 38 18 38 38 0 9 5 16 10 16
6 0 10 -7 10 -16z m910 -19 c0 -2 -6 -5 -13 -8 -8 -3 -14 1 -14 8 0 7 6 11 14
8 7 -3 13 -6 13 -8z m-865 -15 c-3 -5 -12 -10 -18 -10 -7 0 -6 4 3 10 19 12
23 12 15 0z m18 -15 c-3 -9 -8 -14 -10 -11 -3 3 -2 9 2 15 9 16 15 13 8 -4z
m667 -35 c0 -5 -2 -10 -4 -10 -3 0 -8 5 -11 10 -3 6 -1 10 4 10 6 0 11 -4 11
-10z m-717 -49 c-5 -3 -14 -14 -20 -25 -9 -16 -10 -14 -9 11 1 20 5 29 14 26
6 -3 12 1 13 8 0 12 1 12 6 0 3 -7 1 -16 -4 -20z m310 -106 c-3 -9 -8 -14 -10
-11 -3 3 -2 9 2 15 9 16 15 13 8 -4z m-100 -35 c-5 -19 -23 -29 -23 -12 0 7
20 32 26 32 1 0 0 -9 -3 -20z m-718 -30 c10 -11 16 -23 13 -26 -10 -9 -69 26
-63 36 10 16 31 11 50 -10z m675 6 c0 -2 -8 -10 -17 -17 -16 -13 -17 -12 -4 4
13 16 21 21 21 13z m-525 -84 c-7 -8 -32 12 -43 36 l-12 27 29 -30 c15 -16 27
-31 26 -33z m-175 38 c0 -5 -5 -10 -11 -10 -5 0 -7 5 -4 10 3 6 8 10 11 10 2
0 4 -4 4 -10z m100 -5 c10 -12 10 -15 -2 -15 -8 0 -15 7 -15 15 0 8 1 15 2 15
2 0 8 -7 15 -15z m35 -45 c-3 -5 -11 -10 -16 -10 -6 0 -7 5 -4 10 3 6 11 10
16 10 6 0 7 -4 4 -10z m62 -15 c8 -22 -2 -29 -24 -15 -16 10 -16 11 0 6 19 -6
24 10 5 17 -10 4 -10 6 0 6 7 1 15 -6 19 -14z m-184 -32 c-7 -2 -19 -2 -25 0
-7 3 -2 5 12 5 14 0 19 -2 13 -5z m-43 -34 c0 -5 -4 -9 -10 -9 -5 0 -10 7 -10
16 0 8 5 12 10 9 6 -3 10 -10 10 -16z m-30 -49 c0 -5 -4 -10 -10 -10 -5 0 -10
5 -10 10 0 6 5 10 10 10 6 0 10 -4 10 -10z m-247 -59 c2 -10 1 -25 -4 -32 -7
-11 -9 -10 -9 4 0 12 -8 17 -32 17 -31 1 -32 1 -14 15 27 21 53 19 59 -4z
m-123 -131 c0 -5 -4 -10 -10 -10 -5 0 -10 5 -10 10 0 6 5 10 10 10 6 0 10 -4
10 -10z m-620 -395 c-7 -8 -17 -12 -22 -9 -6 4 -5 10 3 15 22 14 33 10 19 -6z
m-16 -20 c25 -3 39 1 43 11 5 14 33 20 33 6 0 -4 -10 -13 -21 -21 -18 -10 -19
-15 -8 -22 20 -14 -39 0 -74 17 -15 7 -36 11 -45 8 -14 -5 -13 -3 2 10 14 11
22 13 27 5 3 -6 23 -12 43 -14z m96 -35 c8 -5 11 -10 5 -10 -5 0 -17 5 -25 10
-8 5 -10 10 -5 10 6 0 17 -5 25 -10z m80 -10 c3 -1 10 -2 15 0 6 1 4 -4 -3
-12 -10 -10 -14 -10 -21 0 -4 7 -15 10 -23 7 -9 -4 -18 -2 -21 2 -5 8 39 10
53 3z m45 -20 c3 -5 1 -10 -4 -10 -6 0 -11 5 -11 10 0 6 2 10 4 10 3 0 8 -4
11 -10z m82 4 c-3 -3 -12 -4 -19 -1 -8 3 -5 6 6 6 11 1 17 -2 13 -5z m12 -28
c9 -11 6 -12 -14 -8 -14 2 -25 8 -25 13 0 14 26 11 39 -5z m106 -44 c-3 -3
-11 0 -18 7 -9 10 -8 11 6 5 10 -3 15 -9 12 -12z"/>
<path d="M5085 9626 c-65 -89 -181 -269 -200 -309 -30 -63 -21 -49 46 63 27
47 77 123 110 169 33 46 58 85 57 87 -2 2 -8 -3 -13 -10z"/>
<path d="M5150 9596 c19 -26 39 -50 44 -54 5 -3 -6 16 -24 42 -19 26 -39 50
-44 54 -5 3 6 -16 24 -42z"/>
<path d="M4812 9173 c-46 -101 -96 -256 -89 -275 3 -8 6 -6 6 6 2 32 68 221
101 286 17 34 29 64 27 66 -2 2 -22 -35 -45 -83z"/>
<path d="M7367 9143 c-11 -10 -8 -33 3 -33 6 0 10 6 10 14 0 8 6 17 13 19 8 4
6 6 -4 6 -9 1 -19 -2 -22 -6z"/>
<path d="M5102 8970 c-44 -419 -44 -899 0 -1240 l12 -95 12 105 c39 330 42
803 9 1160 -9 91 -17 169 -19 175 -1 5 -8 -42 -14 -105z m15 -47 c-3 -10 -5
-4 -5 12 0 17 2 24 5 18 2 -7 2 -21 0 -30z m-10 -140 c-3 -10 -5 -2 -5 17 0
19 2 27 5 18 2 -10 2 -26 0 -35z m20 -10 c-3 -10 -5 -4 -5 12 0 17 2 24 5 18
2 -7 2 -21 0 -30z m-30 -100 c-2 -16 -4 -5 -4 22 0 28 2 40 4 28 2 -13 2 -35
0 -50z m41 -349 c-2 -256 -6 -318 -17 -322 -10 -3 -11 2 -6 19 5 19 4 21 -4 9
-6 -8 -10 -28 -10 -45 1 -16 3 -23 6 -13 2 9 10 18 17 21 9 4 12 -9 9 -51 -8
-126 -26 -165 -31 -69 -2 37 0 48 8 37 8 -12 10 -9 10 14 0 24 -2 27 -15 16
-13 -10 -14 -2 -13 68 0 44 -2 84 -6 90 -3 6 -1 12 6 14 10 4 10 10 0 33 -12
25 -11 27 2 15 19 -15 19 -14 17 65 0 44 2 55 8 40 7 -15 10 -6 9 35 0 44 -2
50 -9 30 -7 -19 -8 -14 -4 20 4 38 3 41 -6 20 -6 -14 -11 -47 -10 -73 0 -26
-3 -46 -8 -43 -5 3 -9 41 -9 83 -1 52 2 71 8 58 7 -17 9 -17 9 -3 1 11 6 15
16 12 8 -4 15 -1 15 5 0 13 -35 33 -44 24 -3 -3 -6 7 -6 23 l0 29 20 -25 c19
-24 20 -24 20 -3 0 30 -10 54 -21 47 -5 -3 -8 7 -8 23 1 16 3 21 6 11 2 -10
10 -15 19 -11 11 4 13 23 10 92 -3 64 -2 78 5 54 5 -18 8 -175 7 -349z m-41
294 c-3 -8 -6 -5 -6 6 -1 11 2 17 5 13 3 -3 4 -12 1 -19z m2 -411 c0 -21 -1
-21 -9 -2 -12 28 -12 37 0 30 6 -3 10 -16 9 -28z m18 -419 c-3 -8 -6 -5 -6 6
-1 11 2 17 5 13 3 -3 4 -12 1 -19z m0 -40 c-3 -8 -6 -5 -6 6 -1 11 2 17 5 13
3 -3 4 -12 1 -19z"/>
<path d="M5121 8224 c0 -11 3 -14 6 -6 3 7 2 16 -1 19 -3 4 -6 -2 -5 -13z"/>
<path d="M5106 8115 c-3 -9 -6 -26 -5 -38 1 -14 4 -9 9 13 9 37 7 52 -4 25z"/>
<path d="M7097 8924 c-8 -8 1 -24 14 -24 5 0 9 7 9 15 0 15 -12 20 -23 9z"/>
<path d="M4703 8833 c-12 -74 -9 -280 6 -358 24 -122 80 -275 155 -420 116
-223 155 -335 181 -519 15 -106 19 -199 5 -121 -6 34 -8 27 -10 -40 -1 -44 -2
-88 -1 -97 1 -10 -3 -18 -8 -18 -6 0 -11 5 -11 10 0 6 -5 10 -11 10 -7 0 -9
-18 -7 -47 2 -37 0 -48 -12 -48 -11 0 -14 9 -12 37 2 26 -1 39 -13 46 -9 5
-16 12 -16 15 3 24 -1 29 -10 13 -9 -14 -8 -20 2 -26 7 -5 13 -18 14 -29 1
-11 -2 -18 -7 -15 -4 3 -8 -1 -8 -8 0 -10 -3 -9 -10 2 -6 9 -5 20 3 29 7 8 7
12 2 9 -6 -4 -17 2 -24 14 -7 11 -8 17 -2 13 12 -7 14 5 5 29 -3 9 -12 16 -19
16 -15 0 -27 41 -19 67 4 14 4 15 -4 4 -8 -11 -11 -9 -17 10 -16 50 -89 195
-132 263 -25 39 -93 118 -151 176 -59 58 -105 109 -104 113 1 5 -2 6 -7 3 -5
-4 -47 19 -93 49 -147 99 -340 177 -468 191 -25 2 1 -7 58 -20 350 -84 669
-331 822 -635 45 -89 88 -204 195 -518 l93 -271 7 126 c11 178 -1 557 -20 672
-25 150 -68 275 -164 467 -96 194 -132 284 -162 408 -25 106 -34 260 -20 359
12 86 8 118 -6 39z m354 -1520 c-3 -10 -5 -2 -5 17 0 19 2 27 5 18 2 -10 2
-26 0 -35z m-152 -3 c3 -5 1 -10 -4 -10 -6 0 -11 5 -11 10 0 6 2 10 4 10 3 0
8 -4 11 -10z m152 -67 c-3 -10 -5 -4 -5 12 0 17 2 24 5 18 2 -7 2 -21 0 -30z
m-106 -56 c-10 -9 -11 -8 -5 6 3 10 9 15 12 12 3 -3 0 -11 -7 -18z m99 3 c0
-5 -8 -10 -17 -10 -15 0 -16 2 -3 10 19 12 20 12 20 0z m7 -62 c-3 -8 -6 -5
-6 6 -1 11 2 17 5 13 3 -3 4 -12 1 -19z m-74 -23 c-3 -8 0 -15 5 -15 6 0 12 7
14 16 2 10 7 5 15 -15 6 -18 7 -33 2 -37 -5 -3 -9 5 -9 18 0 17 -3 19 -9 9
-12 -19 -31 -4 -31 25 0 14 4 23 10 19 5 -3 7 -12 3 -20z m84 -37 c-3 -7 -5
-2 -5 12 0 14 2 19 5 13 2 -7 2 -19 0 -25z m-51 -39 c3 -6 1 -16 -6 -22 -10
-9 -11 -9 -5 2 4 8 2 17 -6 22 -9 6 -10 9 -2 9 6 0 15 -5 19 -11z"/>
<path d="M7080 8840 c0 -33 3 -40 20 -40 17 0 20 7 20 40 0 33 -3 40 -20 40
-17 0 -20 -7 -20 -40z"/>
<path d="M6895 8730 c-3 -5 1 -10 9 -10 9 0 16 5 16 10 0 6 -4 10 -9 10 -6 0
-13 -4 -16 -10z"/>
<path d="M6865 8710 c3 -5 8 -10 11 -10 2 0 4 5 4 10 0 6 -5 10 -11 10 -5 0
-7 -4 -4 -10z"/>
<path d="M6825 8667 c-4 -11 -3 -23 4 -30 15 -15 19 -7 11 23 -6 22 -8 23 -15
7z"/>
<path d="M6130 8229 c0 -5 5 -7 10 -4 6 3 10 8 10 11 0 2 -4 4 -10 4 -5 0 -10
-5 -10 -11z"/>
<path d="M3537 8213 c18 -2 50 -2 70 0 21 2 7 4 -32 4 -38 0 -55 -2 -38 -4z"/>
<path d="M3728 8213 c23 -2 59 -2 80 0 20 2 1 4 -43 4 -44 0 -61 -2 -37 -4z"/>
<path d="M5847 8073 c-9 -8 12 -33 27 -33 6 0 3 5 -7 11 -9 6 -15 14 -12 20 7
10 2 12 -8 2z"/>
<path d="M4109 7791 c30 -28 59 -48 64 -44 6 3 7 1 3 -5 -3 -6 68 -77 166
-165 172 -154 355 -336 457 -454 30 -35 57 -60 62 -57 5 3 7 -1 4 -8 -2 -7 14
-33 37 -58 38 -43 40 -43 21 -10 -11 19 -39 70 -62 113 -49 89 -134 206 -209
288 -77 84 -219 202 -233 193 -7 -4 -9 -3 -5 4 7 12 -62 63 -239 176 l-120 77
54 -50z m157 -102 c11 -11 26 -19 32 -19 7 0 12 -3 12 -8 0 -4 10 -12 23 -17
12 -6 21 -17 19 -24 -1 -7 2 -10 8 -6 5 3 21 -5 34 -19 13 -14 27 -26 31 -26
13 0 50 -35 53 -50 2 -8 11 -22 20 -30 14 -14 15 -13 3 2 -11 14 -9 16 9 11
12 -3 26 -15 30 -27 5 -11 9 -17 9 -12 1 6 16 -5 35 -23 31 -30 33 -35 20 -49
-18 -17 -10 -30 9 -14 10 9 18 8 33 -3 18 -14 18 -16 1 -29 -14 -11 -15 -15
-4 -19 8 -3 19 -1 24 4 6 6 15 4 23 -6 11 -13 11 -18 1 -24 -10 -6 -9 -10 3
-14 8 -3 17 -3 19 1 2 4 2 1 1 -5 -2 -7 3 -13 11 -13 7 0 16 -4 19 -9 4 -5 -4
-7 -16 -5 -15 3 -9 -3 15 -16 21 -11 35 -25 32 -30 -4 -6 -2 -10 3 -10 5 0 17
-11 26 -25 16 -24 16 -25 -6 -24 -13 0 -18 3 -11 5 7 3 9 12 6 20 -4 11 -8 12
-13 5 -4 -7 -15 -2 -31 15 l-24 26 25 -6 c21 -5 20 -3 -5 8 -16 8 -52 37 -79
64 -41 43 -46 51 -31 59 15 9 15 11 1 22 -13 11 -16 11 -16 -3 0 -24 -13 -20
-43 14 -15 17 -23 30 -17 30 5 0 10 4 10 9 0 5 -8 8 -17 6 -23 -3 -45 14 -36
28 3 5 1 7 -5 3 -6 -3 -22 8 -37 26 -15 18 -23 26 -19 18 5 -8 -24 14 -64 50
-40 36 -75 73 -78 83 -3 9 -10 15 -15 11 -5 -3 -33 18 -62 47 -38 38 -44 48
-22 35 17 -10 39 -27 51 -37z m585 -594 c8 -16 6 -15 -10 4 -12 13 -21 28 -21
35 0 12 14 -5 31 -39z"/>
<path d="M4665 7319 c-10 -15 3 -25 16 -12 7 7 7 13 1 17 -6 3 -14 1 -17 -5z"/>
<path d="M5994 7721 c-98 -66 -221 -156 -271 -200 -150 -131 -284 -300 -379
-477 -43 -79 -38 -76 103 86 105 119 300 314 486 484 59 54 105 101 102 106
-3 4 3 14 13 21 16 13 16 13 2 -5 -8 -11 -10 -17 -4 -15 13 5 140 119 133 119
-3 0 -86 -54 -185 -119z m19 -22 c-8 -8 -13 -7 -18 2 -5 8 -4 10 3 5 7 -4 12
-2 12 5 0 7 3 9 7 6 4 -4 2 -12 -4 -18z m-47 -34 c-3 -9 -10 -13 -16 -10 -6 4
-5 11 3 20 15 16 22 11 13 -10z m-31 -26 c-4 -5 -12 -9 -18 -8 -9 0 -8 2 1 6
6 2 9 10 6 15 -4 7 -2 8 5 4 6 -4 9 -12 6 -17z m-58 -33 c0 -9 -6 -12 -16 -8
-14 5 -14 4 -1 -14 14 -18 14 -18 -2 -5 -10 7 -18 11 -18 7 0 -15 -4 -22 -19
-33 -9 -6 -13 -15 -8 -19 4 -4 7 -2 7 4 0 7 5 12 11 12 14 0 2 -18 -21 -30
-13 -7 -21 -7 -26 2 -4 7 -3 8 4 4 7 -4 12 -2 12 5 0 7 -8 9 -21 6 -16 -4 -18
-3 -9 8 6 8 19 11 27 8 12 -5 14 -3 8 8 -4 8 -5 11 -1 8 4 -4 20 6 36 22 32
33 37 35 37 15z m-113 -97 c-2 -4 1 -9 8 -11 7 -3 2 -7 -11 -11 -17 -4 -21 -2
-17 9 3 8 1 14 -5 14 -5 0 -12 -7 -15 -15 -4 -8 -11 -15 -17 -15 -5 0 -2 9 7
19 16 18 60 26 50 10z m-54 -72 c0 -7 -9 -18 -19 -24 -16 -10 -22 -9 -33 5
-11 15 -11 15 3 5 12 -10 18 -9 29 7 17 23 20 24 20 7z m-96 -90 c7 -6 6 -7
-4 -4 -8 2 -16 12 -17 23 -2 13 -1 15 4 4 3 -8 11 -19 17 -23z m-150 -162 c3
-8 0 -14 -7 -12 -7 1 -11 -4 -9 -11 1 -8 -2 -11 -8 -7 -6 4 -5 13 3 25 14 24
13 24 21 5z"/>
<path d="M5555 7820 c3 -5 8 -10 11 -10 2 0 4 5 4 10 0 6 -5 10 -11 10 -5 0
-7 -4 -4 -10z"/>
<path d="M5455 7670 c-3 -6 1 -7 9 -4 18 7 21 14 7 14 -6 0 -13 -4 -16 -10z"/>
<path d="M1446 7655 c-9 -26 -7 -32 5 -12 6 10 9 21 6 23 -2 3 -7 -2 -11 -11z"/>
<path d="M5225 7620 c3 -5 8 -10 11 -10 2 0 4 5 4 10 0 6 -5 10 -11 10 -5 0
-7 -4 -4 -10z"/>
<path d="M5271 7554 c0 -11 3 -14 6 -6 3 7 2 16 -1 19 -3 4 -6 -2 -5 -13z"/>
<path d="M4856 7461 c-3 -5 1 -11 9 -14 9 -4 12 -1 8 9 -6 16 -10 17 -17 5z"/>
<path d="M4897 7349 c7 -7 15 -10 18 -7 3 3 -2 9 -12 12 -14 6 -15 5 -6 -5z"/>
<path d="M4951 7344 c0 -11 3 -14 6 -6 3 7 2 16 -1 19 -3 4 -6 -2 -5 -13z"/>
<path d="M1261 7154 c0 -11 3 -14 6 -6 3 7 2 16 -1 19 -3 4 -6 -2 -5 -13z"/>
<path d="M1241 7084 c0 -11 3 -14 6 -6 3 7 2 16 -1 19 -3 4 -6 -2 -5 -13z"/>
<path d="M4440 7061 c0 -6 4 -13 10 -16 6 -3 7 1 4 9 -7 18 -14 21 -14 7z"/>
<path d="M4498 7048 c-9 -5 -6 -7 9 -5 12 2 25 6 28 8 8 9 -23 6 -37 -3z"/>
<path d="M1221 7014 c0 -11 3 -14 6 -6 3 7 2 16 -1 19 -3 4 -6 -2 -5 -13z"/>
<path d="M1211 6974 c0 -11 3 -14 6 -6 3 7 2 16 -1 19 -3 4 -6 -2 -5 -13z"/>
<path d="M1201 6934 c0 -11 3 -14 6 -6 3 7 2 16 -1 19 -3 4 -6 -2 -5 -13z"/>
<path d="M1192 6890 c0 -14 2 -19 5 -12 2 6 2 18 0 25 -3 6 -5 1 -5 -13z"/>
<path d="M1165 6770 c-10 -50 -16 -93 -13 -95 2 -3 12 36 22 86 9 50 15 93 13
95 -2 3 -12 -36 -22 -86z"/>
<path d="M1126 6520 c-10 -74 -16 -146 -13 -160 3 -19 5 -16 6 12 0 21 8 87
17 149 8 61 13 116 11 122 -2 7 -12 -49 -21 -123z"/>
<path d="M4160 6620 c0 -11 5 -20 10 -20 6 0 10 -9 10 -20 0 -13 7 -20 20 -20
13 0 20 7 20 20 0 11 5 20 10 20 6 0 10 6 10 14 0 8 8 17 18 19 10 3 6 5 -10
6 -22 1 -28 -4 -28 -19 0 -13 -7 -20 -20 -20 -13 0 -20 7 -20 20 0 11 -4 20
-10 20 -5 0 -10 -9 -10 -20z"/>
<path d="M4000 6554 c0 -8 5 -12 10 -9 6 4 8 11 5 16 -9 14 -15 11 -15 -7z"/>
<path d="M3986 6495 c-3 -8 -1 -15 4 -15 6 0 10 7 10 15 0 8 -2 15 -4 15 -2 0
-6 -7 -10 -15z"/>
<path d="M3840 6375 c0 -11 11 -15 40 -15 29 0 40 4 40 15 0 11 -11 15 -40 15
-29 0 -40 -4 -40 -15z"/>
<path d="M3740 6230 c0 -5 5 -10 10 -10 6 0 10 5 10 10 0 6 -4 10 -10 10 -5 0
-10 -4 -10 -10z"/>
<path d="M3208 6213 c7 -3 16 -2 19 1 4 3 -2 6 -13 5 -11 0 -14 -3 -6 -6z"/>
<path d="M3485 6210 c-3 -5 1 -10 10 -10 9 0 13 5 10 10 -3 6 -8 10 -10 10 -2
0 -7 -4 -10 -10z"/>
<path d="M3540 6197 c10 -8 90 -17 90 -10 0 5 -21 9 -47 11 -26 2 -45 1 -43
-1z"/>
<path d="M3373 6167 c2 -6 14 -14 28 -18 19 -5 25 -2 25 10 0 11 -10 16 -29
17 -15 1 -26 -3 -24 -9z"/>
<path d="M3466 6146 c3 -9 13 -16 22 -16 8 0 13 1 11 3 -2 1 -12 9 -22 16 -15
12 -17 12 -11 -3z"/>
<path d="M2300 5940 c-348 -33 -660 -104 -939 -214 -146 -58 -251 -105 -251
-112 0 -33 78 -483 85 -492 2 -2 25 8 52 21 123 62 400 148 583 181 315 56
716 66 1050 25 344 -42 796 -157 1170 -299 166 -62 191 -76 214 -123 24 -51
15 -100 -29 -144 -46 -46 -91 -45 -204 6 -180 81 -509 183 -772 241 -276 60
-450 81 -729 87 -410 9 -668 -24 -975 -124 -66 -21 -283 -109 -293 -117 -5 -6
150 -439 163 -454 2 -2 47 11 100 28 277 88 697 111 1102 60 328 -42 830 -170
1170 -299 164 -62 170 -65 193 -104 36 -59 18 -130 -43 -167 -44 -27 -72 -25
-156 10 -98 40 -366 130 -533 179 -585 171 -1167 206 -1633 99 -49 -11 -92
-22 -94 -24 -2 -2 31 -65 74 -141 190 -338 395 -603 691 -893 334 -328 624
-535 1031 -738 444 -222 892 -349 1423 -404 185 -19 680 -16 845 6 645 84
1236 301 1740 639 590 395 1048 899 1364 1498 69 132 83 168 59 153 -7 -4 -8
-3 -4 5 4 6 11 9 16 6 10 -6 160 349 160 381 0 3 -15 -6 -32 -19 -98 -73 -464
-261 -678 -347 -204 -82 -442 -160 -491 -160 -114 0 -163 127 -83 212 21 21
73 43 228 94 320 106 566 214 826 362 96 54 307 189 332 211 21 18 85 417 101
628 l4 51 -86 -57 c-106 -72 -278 -169 -437 -249 -424 -212 -826 -330 -1344
-394 -166 -21 -730 -17 -905 5 -524 68 -952 176 -1575 397 -869 310 -1221 407
-1692 470 -174 24 -636 35 -798 20z m730 -24 c243 -29 537 -85 518 -98 -9 -7
-8 -8 6 -4 23 8 127 -14 121 -25 -3 -4 4 -5 15 -2 11 3 41 -2 67 -10 27 -8 63
-18 81 -22 17 -4 32 -11 32 -16 0 -5 3 -8 8 -8 4 1 18 1 31 0 17 -1 22 -5 17
-17 -5 -14 -4 -15 9 -4 11 9 18 10 28 1 8 -6 16 -8 19 -6 3 3 36 -5 74 -19 38
-13 84 -27 102 -31 19 -4 31 -12 29 -18 -3 -7 -10 -11 -16 -9 -7 1 -9 -3 -6
-9 5 -7 10 -8 18 0 7 7 15 7 25 -1 16 -14 53 -18 46 -6 -4 5 -12 7 -19 4 -8
-3 -19 3 -27 11 -11 15 -11 16 6 9 11 -4 42 -14 68 -23 26 -8 48 -20 48 -25 0
-5 8 -7 18 -4 9 3 30 -1 46 -9 15 -8 36 -15 45 -15 22 0 63 -29 42 -30 -8 0
-11 -3 -8 -6 4 -4 13 -1 22 6 8 7 15 8 15 2 0 -5 6 -10 13 -9 39 1 45 -4 43
-35 0 -19 4 -33 13 -36 8 -3 11 0 7 6 -3 6 -2 13 4 17 5 3 10 12 10 18 0 7 -4
6 -10 -3 -5 -8 -12 -11 -16 -7 -4 4 -3 12 3 18 8 8 22 5 49 -9 22 -11 44 -21
49 -21 6 -1 21 -5 35 -8 l25 -7 -25 -6 c-14 -4 -42 -6 -62 -5 -21 1 -38 -2
-38 -6 0 -5 -7 -9 -15 -9 -12 0 -15 -15 -15 -75 l0 -75 -50 0 -50 0 0 -80 0
-80 -80 0 c-71 0 -81 -2 -78 -17 2 -12 -4 -19 -19 -21 -13 -2 -23 -8 -23 -13
0 -5 -11 -9 -25 -9 -18 0 -23 -4 -19 -15 4 -10 0 -15 -12 -16 -14 0 -15 -2 -4
-6 8 -4 21 -12 28 -20 17 -17 32 -17 32 1 0 8 -6 13 -12 12 -7 0 -14 4 -15 9
-2 6 3 10 10 10 6 0 16 6 20 13 4 6 17 12 27 12 21 0 23 -10 9 -50 -9 -25 -9
-25 -5 3 3 22 1 25 -10 16 -19 -15 -18 -34 2 -54 13 -12 14 -19 5 -28 -8 -8
-11 -8 -11 2 0 7 -4 10 -10 6 -5 -3 -7 -13 -4 -23 3 -9 -3 -2 -13 16 -12 21
-38 42 -76 61 -31 16 -57 27 -57 24 0 -2 -15 4 -32 14 l-33 17 33 9 c33 10 44
27 17 27 -8 0 -15 4 -15 8 0 4 -9 8 -20 8 -26 0 -25 -5 1 -14 21 -8 21 -8 -4
-25 -23 -15 -29 -15 -71 -1 -26 9 -43 20 -40 26 4 6 10 5 15 -3 5 -9 9 -9 9
-3 0 7 6 12 13 11 32 -1 48 4 42 13 -5 7 -11 8 -19 1 -6 -5 -21 -8 -31 -7 -11
2 -28 -1 -38 -6 -12 -6 -36 -1 -80 18 -34 14 -70 26 -79 26 -10 -1 -18 4 -18
9 0 6 -4 8 -9 5 -10 -6 -95 17 -149 40 -18 8 -43 14 -56 14 -14 0 -28 9 -35
23 -6 12 -9 14 -7 5 6 -19 2 -21 -31 -12 -12 3 -19 12 -17 19 3 7 1 16 -5 20
-7 3 -8 0 -5 -9 8 -20 -2 -20 -94 3 -330 84 -637 121 -977 116 -272 -4 -464
-24 -672 -70 -151 -34 -363 -100 -436 -137 -22 -11 -45 -17 -53 -14 -8 3 -13
2 -10 -3 5 -8 -23 -25 -30 -19 -4 4 -40 206 -59 328 -9 58 -18 113 -20 123 -3
14 8 23 43 39 26 11 52 21 57 22 6 1 25 10 43 19 60 32 274 108 289 103 8 -3
11 -1 8 4 -3 6 -4 10 -1 10 4 0 66 16 139 35 189 50 461 94 677 109 112 8 529
-4 650 -18z m6003 -291 c-3 -9 -8 -14 -10 -11 -3 3 -2 9 2 15 9 16 15 13 8 -4z
m-46 -27 c-3 -8 -6 -5 -6 6 -1 11 2 17 5 13 3 -3 4 -12 1 -19z m-32 -13 c-3
-35 -9 -38 -24 -12 -13 21 -13 21 4 7 17 -13 18 -13 13 2 -4 9 -4 19 -1 22 10
10 11 7 8 -19z m-45 -34 c0 -9 -38 -12 -44 -3 -2 4 7 8 20 8 13 1 24 -1 24 -5z
m-49 -18 c13 -16 12 -17 -3 -4 -10 7 -18 15 -18 17 0 8 8 3 21 -13z m-86 -33
c-3 -5 -1 -10 6 -10 7 0 10 -2 7 -5 -3 -3 -13 -2 -22 1 -14 5 -15 9 -4 15 17
11 20 11 13 -1z m-3974 -65 c10 -4 19 -10 19 -14 0 -4 8 -7 19 -8 10 -1 36 -9
57 -19 21 -9 45 -16 52 -15 6 1 12 -3 12 -9 0 -6 5 -8 10 -5 6 4 22 0 35 -9
14 -9 35 -17 48 -18 18 -2 23 -7 19 -20 -3 -14 1 -18 19 -18 19 0 21 2 9 10
-12 8 -10 10 10 9 48 -2 70 -13 60 -29 -6 -10 -10 -11 -10 -2 0 6 -5 12 -11
12 -5 0 -8 -4 -5 -9 4 -5 -4 -7 -16 -3 -13 3 -19 1 -15 -5 11 -17 -20 -23 -55
-11 -28 10 -30 12 -12 19 14 6 10 8 -18 8 -25 1 -40 -5 -46 -16 -9 -16 -11
-16 -27 0 -18 19 -70 23 -80 7 -3 -5 -22 -10 -41 -10 -29 0 -34 3 -34 23 0 19
8 24 47 33 38 9 50 9 61 -2 16 -16 42 -19 42 -4 0 6 9 10 20 10 11 0 20 5 20
11 0 6 -7 9 -15 6 -8 -4 -17 -2 -19 2 -3 5 -27 4 -53 0 -26 -5 -55 -6 -63 -3
-8 4 -30 6 -47 5 -20 -2 -33 2 -33 9 0 7 7 10 15 6 20 -7 50 23 36 37 -7 7
-15 6 -24 -2 -15 -11 -22 -7 -41 26 -7 12 12 11 55 -2z m-74 -57 c-2 -13 -4
-3 -4 22 0 25 2 35 4 23 2 -13 2 -33 0 -45z m4273 52 c0 -5 -4 -10 -10 -10 -5
0 -10 5 -10 10 0 6 5 10 10 10 6 0 10 -4 10 -10z m-363 -15 c0 -8 -4 -12 -9
-9 -5 3 -6 10 -3 15 9 13 12 11 12 -6z m-47 -15 c-6 -11 -13 -20 -16 -20 -2 0
0 9 6 20 6 11 13 20 16 20 2 0 0 -9 -6 -20z m484 -38 c3 -5 -1 -9 -9 -9 -8 0
-12 4 -9 9 3 4 7 8 9 8 2 0 6 -4 9 -8z m-629 -22 c-3 -5 -12 -10 -18 -10 -7 0
-6 4 3 10 19 12 23 12 15 0z m-3218 -56 c-3 -3 -12 -4 -19 -1 -8 3 -5 6 6 6
11 1 17 -2 13 -5z m134 -34 c6 0 8 -4 4 -9 -3 -5 -1 -12 5 -16 5 -3 10 -1 10
4 0 6 5 11 10 11 6 0 5 -8 -2 -19 -7 -11 -16 -17 -20 -15 -4 3 -8 0 -8 -7 0
-9 -4 -9 -15 1 -8 6 -20 8 -26 4 -9 -5 -10 -2 -6 10 4 10 7 24 7 33 0 10 6 13
16 9 9 -3 20 -6 25 -6z m75 -35 c9 -8 11 -15 6 -15 -5 0 -15 7 -22 15 -7 8 -9
15 -6 15 4 0 14 -7 22 -15z m44 1 c0 -3 -4 -8 -10 -11 -5 -3 -10 -1 -10 4 0 6
5 11 10 11 6 0 10 -2 10 -4z m2635 -6 c-3 -5 -12 -10 -18 -10 -7 0 -6 4 3 10
19 12 23 12 15 0z m-2536 -26 c12 -11 -11 -15 -24 -4 -9 8 -15 9 -15 2 0 -6 8
-16 18 -22 14 -10 13 -11 -8 -6 -14 3 -35 6 -48 6 -30 0 -24 22 9 31 22 6 58
2 68 -7z m58 -17 c12 5 14 3 8 -7 -6 -10 -4 -12 8 -7 11 4 14 2 10 -9 -6 -17
-23 -19 -23 -3 0 6 -7 8 -16 5 -8 -3 -12 -2 -9 4 3 6 -2 10 -12 10 -15 0 -16
2 -3 10 9 5 16 6 18 0 2 -5 10 -6 19 -3z m-190 -14 c3 -8 -5 -11 -24 -9 -39 5
-40 5 -23 16 19 12 42 9 47 -7z m2515 5 c-8 -8 -9 -15 -1 -25 19 -22 3 -14
-17 9 -10 12 -14 18 -7 15 6 -4 14 -3 18 3 3 5 9 10 13 10 3 0 1 -5 -6 -12z
m-2254 -6 c9 -6 5 -12 -15 -20 -25 -11 -26 -11 -10 2 14 10 15 15 5 19 -7 3
-8 6 -3 6 6 0 16 -3 23 -7z m44 -17 c0 -5 -5 -10 -11 -12 -8 -1 -7 0 0 4 8 4
7 8 -2 15 -11 8 -11 9 -1 6 8 -2 14 -8 14 -13z m-3030 -35 c185 -18 280 -33
266 -41 -7 -5 4 -6 27 -3 31 4 37 3 25 -6 -12 -8 -7 -9 20 -5 19 4 55 1 80 -5
25 -6 52 -13 60 -14 8 -1 34 -6 58 -10 23 -4 40 -12 36 -17 -3 -5 -10 -7 -15
-4 -5 3 -6 -1 -3 -10 5 -12 14 -14 34 -10 16 3 31 1 35 -4 3 -6 11 -11 17 -11
5 0 0 9 -13 21 -22 18 -22 20 -4 15 11 -3 32 -8 48 -12 15 -3 27 -10 27 -14 0
-4 11 -5 25 -2 14 2 36 -3 50 -12 14 -9 25 -14 25 -12 0 3 39 -7 88 -20 119
-35 122 -35 122 -43 0 -3 14 -7 30 -8 17 -1 45 -12 62 -25 17 -12 28 -17 24
-10 -9 14 -2 15 22 3 16 -9 54 -23 59 -22 2 1 19 -8 38 -19 20 -11 42 -20 50
-20 8 0 15 -5 15 -11 0 -6 -7 -8 -16 -5 -15 6 -15 4 -3 -11 13 -15 12 -16 -6
-9 -16 6 -18 5 -7 -6 11 -11 16 -9 30 9 16 20 18 20 32 5 13 -14 12 -15 -3 -9
-11 4 -16 3 -12 -3 3 -6 1 -10 -6 -10 -7 0 -9 -3 -6 -6 4 -4 18 1 32 10 14 9
25 13 25 8 0 -5 22 -8 48 -8 27 1 60 -2 73 -6 19 -6 16 -7 -12 -5 -27 2 -35
-1 -32 -10 3 -7 16 -13 29 -13 31 0 30 -11 -1 -40 -27 -26 -46 -21 -24 6 12
15 11 16 -8 10 -13 -4 -34 -1 -53 9 -44 23 -133 3 -105 -23 4 -4 10 -1 12 6 3
6 12 12 21 12 26 0 86 -24 104 -42 14 -14 18 -34 18 -88 l0 -70 -81 0 -81 0 2
-87 c1 -49 1 -92 0 -98 -1 -5 -1 -18 0 -28 1 -14 -4 -16 -23 -12 -14 4 -37 0
-53 -8 -16 -8 -34 -12 -41 -10 -6 2 -14 -1 -18 -6 -4 -8 -12 -8 -25 -1 -11 6
-21 6 -24 1 -3 -5 -15 -7 -27 -4 -18 5 -16 8 17 24 31 14 35 19 22 24 -19 8
-79 -15 -72 -27 3 -4 -9 -3 -25 3 -17 6 -33 20 -36 31 -4 12 -12 17 -21 14 -8
-3 -17 0 -20 8 -6 15 -34 17 -31 2 2 -13 -4 -13 -55 -2 -37 8 -42 14 -39 46 2
13 1 13 -8 0 -5 -8 -8 -17 -5 -22 4 -7 -18 -1 -118 33 -21 7 -35 16 -31 22 3
5 -2 5 -13 0 -20 -10 -100 7 -89 19 4 4 -4 12 -17 19 -21 11 -22 11 -9 -4 11
-15 11 -17 -1 -17 -8 0 -18 3 -22 7 -3 4 -14 8 -23 9 -9 2 -28 6 -42 10 -14 4
-34 6 -43 5 -10 -1 -18 3 -18 8 0 6 -10 11 -22 11 -19 0 -20 2 -8 10 13 8 12
10 -2 10 -10 0 -18 -5 -18 -11 0 -13 -63 -1 -68 12 -2 5 -8 6 -13 3 -6 -3 -42
1 -82 9 -86 18 -138 27 -192 34 -22 2 -69 9 -105 14 -108 16 -474 22 -615 10
-181 -15 -398 -53 -435 -76 -6 -4 -17 -1 -25 5 -8 7 -20 10 -27 7 -8 -4 -7 -6
5 -6 26 -1 21 -21 -6 -21 -13 0 -28 -5 -35 -12 -9 -9 -12 -9 -13 0 -2 21 -4
26 -18 50 -10 18 -10 26 0 38 9 12 9 13 -2 9 -15 -6 -43 50 -33 66 3 5 0 9 -6
9 -6 0 -8 5 -5 10 3 6 2 10 -3 10 -5 0 -19 35 -31 78 -13 42 -30 94 -39 115
-9 23 -12 41 -6 47 34 33 361 146 526 180 84 17 268 44 373 53 87 8 446 6 537
-3z m3210 3 c-6 -2 -10 -9 -7 -14 4 -5 -1 -6 -10 -2 -13 5 -14 7 -3 14 7 5 18
8 23 8 6 0 4 -3 -3 -6z m1788 -3 c-8 -5 -19 -10 -25 -10 -5 0 -3 5 5 10 8 5
20 10 25 10 6 0 3 -5 -5 -10z m-1711 -14 c9 -10 8 -15 -3 -19 -10 -4 -13 -1
-10 8 4 9 -4 15 -23 18 -28 4 -28 4 -2 6 15 0 32 -5 38 -13z m1622 -9 c-6 -8
-7 -18 -3 -22 4 -5 1 -5 -6 -1 -10 6 -10 11 -1 22 6 8 14 14 16 14 3 0 0 -6
-6 -13z m124 -5 c-3 -3 -11 0 -18 7 -9 10 -8 11 6 5 10 -3 15 -9 12 -12z
m-3175 4 c0 -3 -4 -8 -10 -11 -5 -3 -10 -1 -10 4 0 6 5 11 10 11 6 0 10 -2 10
-4z m1397 -2 c-3 -3 -12 -4 -19 -1 -8 3 -5 6 6 6 11 1 17 -2 13 -5z m120 0
c-3 -3 -12 -4 -19 -1 -8 3 -5 6 6 6 11 1 17 -2 13 -5z m138 -24 c3 -5 -1 -10
-9 -10 -9 0 -16 5 -16 10 0 6 4 10 9 10 6 0 13 -4 16 -10z m1168 -7 c-7 -2
-21 -2 -30 0 -10 3 -4 5 12 5 17 0 24 -2 18 -5z m-1003 -13 c0 -13 -11 -13
-30 0 -12 8 -11 10 8 10 12 0 22 -4 22 -10z m93 -7 c-7 -2 -21 -2 -30 0 -10 3
-4 5 12 5 17 0 24 -2 18 -5z m734 1 c-3 -3 -12 -4 -19 -1 -8 3 -5 6 6 6 11 1
17 -2 13 -5z m-600 -10 c-3 -3 -12 -4 -19 -1 -8 3 -5 6 6 6 11 1 17 -2 13 -5z
m466 -1 c-7 -2 -21 -2 -30 0 -10 3 -4 5 12 5 17 0 24 -2 18 -5z m-136 -9 c-3
-3 -12 -4 -19 -1 -8 3 -5 6 6 6 11 1 17 -2 13 -5z m-3642 -14 c-3 -5 -12 -10
-18 -10 -7 0 -6 4 3 10 19 12 23 12 15 0z m3898 3 c-7 -2 -19 -2 -25 0 -7 3
-2 5 12 5 14 0 19 -2 13 -5z m-848 -23 c3 -5 -1 -10 -10 -10 -9 0 -13 5 -10
10 3 6 8 10 10 10 2 0 7 -4 10 -10z m-2051 -72 c-3 -4 -9 -8 -15 -8 -5 0 -9 4
-9 8 0 5 7 9 15 9 8 0 12 -4 9 -9z m6 -48 c10 -24 10 -33 -1 -46 -10 -13 -10
-17 2 -25 12 -8 12 -10 0 -18 -9 -6 -22 -4 -38 6 -21 14 -23 14 -17 0 7 -20
-25 -37 -51 -26 -16 6 -14 8 13 8 17 1 32 6 32 12 0 5 -5 7 -11 3 -6 -3 -3 6
7 21 16 24 19 26 30 11 14 -20 24 -3 16 27 -4 15 -7 16 -14 5 -7 -9 -8 -7 -3
7 4 11 8 26 8 33 1 22 14 13 27 -18z m4275 -20 c-3 -5 -14 -10 -23 -10 -15 0
-15 2 -2 10 20 13 33 13 25 0z m-3670 -40 c-3 -5 -15 -10 -26 -10 -10 0 -19 5
-19 10 0 6 12 10 26 10 14 0 23 -4 19 -10z m90 0 c-3 -5 -10 -10 -16 -10 -5 0
-9 5 -9 10 0 6 7 10 16 10 8 0 12 -4 9 -10z m175 -2 c0 -4 -7 -8 -15 -8 -8 0
-15 4 -15 8 0 5 7 9 15 9 8 0 15 -4 15 -9z m40 -9 c0 -5 8 -9 18 -10 14 0 14
-2 -3 -9 -27 -12 -43 -12 -25 0 8 5 10 10 4 10 -7 0 -14 7 -17 14 -4 10 -1 13
9 9 7 -3 14 -9 14 -14z m155 12 c-19 -8 -18 -9 5 -13 21 -4 19 -6 -9 -7 -29
-1 -32 1 -21 14 7 8 20 15 29 14 12 0 11 -2 -4 -8z m525 -11 c-12 -8 -12 -10
-1 -10 8 0 12 -2 9 -5 -3 -3 -13 -2 -22 1 -14 5 -15 9 -4 15 7 5 18 9 23 9 6
0 3 -5 -5 -10z m2523 -5 c-3 -9 -8 -14 -10 -11 -3 3 -2 9 2 15 9 16 15 13 8
-4z m68 -8 c-10 -9 -11 -8 -5 6 3 10 9 15 12 12 3 -3 0 -11 -7 -18z m-3521 3
c0 -5 -4 -10 -10 -10 -5 0 -10 5 -10 10 0 6 5 10 10 10 6 0 10 -4 10 -10z m80
-10 c0 -5 -9 -10 -21 -10 -11 0 -17 5 -14 10 3 6 13 10 21 10 8 0 14 -4 14
-10z m126 -6 c18 -15 18 -15 -3 -4 -13 6 -35 8 -50 5 -23 -4 -24 -4 -8 4 29
14 39 13 61 -5z m891 10 c-3 -3 -12 -4 -19 -1 -8 3 -5 6 6 6 11 1 17 -2 13 -5z
m-1747 -51 c0 -9 -16 -13 -50 -13 -51 0 -64 12 -32 29 11 6 24 6 37 -1 17 -9
18 -8 8 3 -22 23 -14 31 12 12 13 -10 25 -24 25 -30z m1405 32 c272 -39 517
-145 749 -323 47 -36 60 -42 68 -31 8 11 9 10 4 -3 -4 -13 16 -34 76 -81 l82
-64 75 44 c164 95 320 159 436 178 38 6 39 6 24 -12 -9 -10 -39 -63 -68 -118
-28 -55 -77 -134 -108 -175 -53 -71 -55 -76 -44 -105 7 -16 32 -84 56 -150 23
-66 53 -142 64 -169 12 -27 20 -50 18 -52 -2 -2 -30 5 -62 16 -70 24 -183 93
-266 162 -49 42 -63 49 -71 37 -8 -11 -9 -11 -5 2 4 11 -14 35 -48 69 -62 62
-47 63 -235 -25 -357 -166 -556 -213 -868 -202 -304 10 -541 87 -794 256 -110
74 -248 194 -248 216 0 13 56 35 88 35 6 0 12 4 12 8 0 13 -49 56 -56 50 -3
-3 5 -16 18 -28 15 -14 18 -21 8 -19 -8 1 -28 -3 -44 -10 -40 -16 -59 3 -59
62 0 34 -3 44 -13 40 -16 -6 -19 13 -4 22 6 4 8 10 6 14 -3 4 1 8 7 8 8 0 12
-12 11 -29 -2 -23 3 -31 23 -39 13 -5 22 -13 18 -18 -3 -5 0 -13 6 -16 5 -4 8
-14 5 -22 -4 -9 -1 -13 6 -10 7 2 11 11 9 18 -2 8 -4 20 -5 26 -1 7 -14 26
-30 41 l-27 29 58 58 c161 161 431 282 708 318 76 10 330 5 420 -8z m165 5 c8
-5 12 -11 10 -14 -3 -2 -14 2 -24 10 -22 15 -10 19 14 4z m-1022 -18 c2 -7 -5
-12 -17 -12 -14 0 -19 5 -14 15 6 17 25 15 31 -3z m140 -4 c-3 -7 -18 -16 -34
-19 -26 -6 -26 -7 -5 -8 39 -2 10 -17 -37 -20 -7 -1 -10 -5 -7 -11 4 -6 -1 -7
-11 -3 -11 4 -15 2 -11 -4 4 -6 -3 -10 -18 -10 -14 0 -25 3 -25 8 0 5 5 9 11
9 6 0 9 9 6 19 -4 17 -2 18 20 10 17 -6 22 -6 17 2 -4 7 -1 10 7 7 7 -2 22 4
33 14 22 20 60 25 54 6z m82 2 c0 -5 -4 -10 -10 -10 -5 0 -10 5 -10 10 0 6 5
10 10 10 6 0 10 -4 10 -10z m930 -28 c7 -8 7 -9 -1 -3 -6 5 -17 7 -24 5 -7 -3
-15 -1 -19 4 -8 13 33 8 44 -6z m75 -1 c-3 -6 -13 -11 -21 -11 -8 0 -12 -4 -9
-10 9 -14 -1 -12 -13 3 -8 10 -6 13 11 14 12 1 23 7 25 13 2 6 6 9 9 6 3 -2 2
-9 -2 -15z m36 -1 c6 0 7 5 3 12 -5 7 -3 8 6 3 10 -6 9 -11 -5 -22 -11 -7 -23
-13 -28 -13 -4 0 -5 -4 -2 -10 3 -5 2 -10 -4 -10 -20 0 -21 19 -2 25 11 3 19
11 17 18 -1 7 -1 9 1 5 3 -5 9 -8 14 -8z m-1321 -10 c0 -5 -5 -10 -11 -10 -5
0 -7 5 -4 10 3 6 8 10 11 10 2 0 4 -4 4 -10z m-500 -17 c-1 -16 -51 -44 -72
-41 -35 5 -34 28 1 28 16 0 33 5 36 10 7 12 35 14 35 3z m1837 -14 c2 -17 -1
-18 -13 -8 -13 11 -10 20 11 29 1 0 1 -9 2 -21z m-1344 -44 c-3 -8 -10 -15
-15 -15 -7 0 -6 5 1 13 6 8 7 18 3 22 -4 5 -2 5 5 1 7 -4 10 -13 6 -21z m42
15 c-3 -5 -12 -10 -18 -10 -7 0 -6 4 3 10 19 12 23 12 15 0z m1391 -2 c4 -7 3
-8 -4 -4 -7 4 -12 3 -12 -3 0 -6 -8 -7 -17 -4 -17 7 -15 8 24 22 1 1 5 -4 9
-11z m-1490 -40 c-1 -10 -3 -19 -6 -20 -12 -3 -50 14 -50 23 0 5 10 9 23 10
12 0 16 3 10 6 -7 2 -13 9 -13 14 0 5 8 4 19 -2 10 -7 18 -20 17 -31z m1525 9
c-10 -9 -11 -8 -5 6 3 10 9 15 12 12 3 -3 0 -11 -7 -18z m1803 14 c3 -5 -2
-15 -12 -22 -15 -12 -16 -12 -5 2 7 9 10 19 6 22 -3 4 -4 7 0 7 3 0 8 -4 11
-9z m41 -1 c3 -5 -1 -10 -10 -10 -9 0 -13 5 -10 10 3 6 8 10 10 10 2 0 7 -4
10 -10z m-3348 -22 c-3 -8 -6 -5 -6 6 -1 11 2 17 5 13 3 -3 4 -12 1 -19z
m1528 3 c-3 -5 -1 -12 5 -16 5 -3 10 -12 10 -18 0 -7 -5 -4 -11 6 -6 10 -15
14 -22 10 -7 -4 -6 0 2 10 14 18 26 23 16 8z m-1645 -27 c0 -8 4 -13 8 -10 4
2 9 -6 10 -19 1 -21 -24 -43 -36 -30 -3 3 0 5 7 5 7 0 9 5 6 10 -4 6 -11 8
-16 5 -5 -4 -9 -1 -9 4 0 6 5 11 11 11 6 0 8 9 4 20 -4 11 -2 20 4 20 6 0 11
-7 11 -16z m4193 -19 c-3 -9 -8 -14 -10 -11 -3 3 -2 9 2 15 9 16 15 13 8 -4z
m-2458 -17 c5 -4 0 -6 -13 -5 -22 1 -27 8 -15 20 3 4 9 4 12 0 3 -4 10 -11 16
-15z m1540 12 c3 -5 1 -10 -4 -10 -6 0 -11 5 -11 10 0 6 2 10 4 10 3 0 8 -4
11 -10z m-3387 -68 c4 -14 -34 -16 -42 -3 -6 10 13 21 28 17 6 -1 12 -8 14
-14z m52 8 c0 -5 8 -7 18 -3 10 4 6 -4 -12 -21 -15 -15 -35 -25 -42 -22 -8 3
-14 2 -14 -3 0 -5 -11 -11 -25 -13 -36 -7 -31 6 11 25 21 11 32 22 28 29 -4 7
-3 8 4 4 7 -4 12 -2 12 3 0 6 5 11 10 11 6 0 10 -4 10 -10z m1883 -24 c4 -10
1 -13 -8 -9 -8 3 -12 9 -9 14 7 12 11 11 17 -5z m-1988 -6 c3 -5 1 -10 -4 -10
-6 0 -11 5 -11 10 0 6 2 10 4 10 3 0 8 -4 11 -10z m2055 6 c0 -3 -4 -8 -10
-11 -5 -3 -10 -1 -10 4 0 6 5 11 10 11 6 0 10 -2 10 -4z m440 -21 c0 -12 -19
-12 -23 0 -4 9 -1 12 9 8 7 -3 14 -7 14 -8z m285 5 c3 -5 1 -10 -4 -10 -6 0
-11 5 -11 10 0 6 2 10 4 10 3 0 8 -4 11 -10z m-218 -6 c-3 -3 -12 -4 -19 -1
-8 3 -5 6 6 6 11 1 17 -2 13 -5z m-42 -14 c-3 -5 -11 -10 -16 -10 -6 0 -7 5
-4 10 3 6 11 10 16 10 6 0 7 -4 4 -10z m1486 -7 c13 -16 12 -17 -3 -4 -10 7
-18 15 -18 17 0 8 8 3 21 -13z m33 1 c3 -8 2 -12 -4 -9 -6 3 -10 10 -10 16 0
14 7 11 14 -7z m-4027 -31 c0 -7 -5 -13 -11 -13 -6 -1 -1 -9 12 -19 24 -21 28
-32 10 -28 -7 1 -14 -8 -16 -20 -4 -25 -32 -32 -32 -9 0 28 12 45 28 40 15 -5
15 -4 -1 9 -11 9 -15 21 -10 32 4 13 3 16 -5 11 -7 -4 -12 -3 -12 3 0 5 8 9
18 8 10 0 19 -7 19 -14z m2358 -22 c-6 -5 -25 10 -25 20 0 5 6 4 14 -3 8 -7
12 -15 11 -17z m-232 -4 c6 -15 -29 -21 -38 -6 -4 5 2 6 11 2 12 -4 15 -3 10
5 -4 7 -3 12 2 12 6 0 12 -6 15 -13z m194 -1 c0 -8 -6 -12 -15 -9 -11 5 -11 7
0 14 7 5 13 9 14 9 0 0 1 -6 1 -14z m753 -16 c0 -5 -2 -10 -4 -10 -3 0 -8 5
-11 10 -3 6 -1 10 4 10 6 0 11 -4 11 -10z m724 2 c3 -5 -1 -9 -9 -9 -8 0 -12
4 -9 9 3 4 7 8 9 8 2 0 6 -4 9 -8z m-1479 -20 c-3 -3 -11 0 -18 7 -9 10 -8 11
6 5 10 -3 15 -9 12 -12z m449 10 c3 -5 -1 -9 -9 -9 -8 0 -15 4 -15 9 0 4 4 8
9 8 6 0 12 -4 15 -8z m-555 -26 c8 -10 8 -16 -2 -24 -10 -9 -13 -6 -13 13 0
29 0 29 15 11z m-34 -6 c3 -6 -1 -7 -9 -4 -18 7 -21 14 -7 14 6 0 13 -4 16
-10z m-3030 -10 c3 -5 -1 -10 -10 -10 -9 0 -13 5 -10 10 3 6 8 10 10 10 2 0 7
-4 10 -10z m35 -21 c0 -6 -4 -7 -10 -4 -5 3 -10 11 -10 16 0 6 5 7 10 4 6 -3
10 -11 10 -16z m3506 -14 c1 -8 -1 -13 -6 -10 -5 3 -10 2 -13 -2 -2 -5 -2 -2
0 6 2 9 -3 11 -14 7 -17 -6 -17 -5 -1 7 10 8 16 16 14 19 -1 3 2 2 7 -3 6 -5
12 -16 13 -24z m864 5 c0 -5 -5 -10 -11 -10 -5 0 -7 5 -4 10 3 6 8 10 11 10 2
0 4 -4 4 -10z m65 0 c3 -6 -1 -7 -9 -4 -18 7 -21 14 -7 14 6 0 13 -4 16 -10z
m-3598 -22 c21 1 33 -3 33 -12 0 -20 -12 -27 -27 -15 -7 6 -13 8 -13 3 0 -5
-5 -2 -10 6 -8 12 -10 12 -10 1 0 -11 -3 -11 -15 -1 -18 15 -20 35 -3 24 6 -4
26 -7 45 -6z m-602 -8 c-3 -5 0 -10 9 -10 8 0 17 6 19 13 3 7 6 4 6 -6 1 -10
6 -15 11 -12 6 4 8 11 5 16 -4 5 -1 9 4 9 6 0 11 -6 11 -14 0 -8 6 -16 13 -19
9 -4 9 -7 -1 -18 -11 -12 -14 -12 -22 1 -5 8 -12 11 -16 8 -12 -13 40 -67 59
-61 16 4 17 0 12 -31 -5 -25 -4 -36 4 -36 7 0 9 5 6 10 -4 6 -1 17 5 25 7 8
10 24 7 34 -3 13 1 21 13 24 14 3 19 -2 22 -24 3 -22 2 -26 -8 -18 -9 7 -14 5
-19 -10 -3 -12 -4 -25 0 -30 3 -5 1 -12 -4 -16 -6 -3 -8 -27 -6 -53 4 -41 3
-45 -9 -30 -12 16 -15 13 -40 -31 -25 -47 -25 -49 -6 -44 15 4 26 -1 37 -16 8
-13 21 -20 30 -17 8 3 11 2 8 -4 -7 -12 23 -28 55 -29 49 -1 68 -5 64 -13 -5
-7 26 -13 49 -9 10 2 9 -17 -2 -24 -5 -3 -12 -1 -16 5 -3 5 -16 10 -28 10 -21
-1 -21 -1 3 -15 22 -12 22 -14 5 -15 -14 0 -16 -3 -8 -11 13 -13 47 2 76 33
11 10 26 18 35 16 29 -6 23 -26 -13 -43 -40 -20 -54 -35 -31 -35 9 0 16 -4 16
-9 0 -12 62 -33 69 -24 9 12 52 11 48 -1 -2 -6 -15 -10 -28 -9 -21 2 -21 1 6
-11 17 -8 34 -12 39 -8 5 3 6 0 2 -6 -8 -13 16 -17 28 -4 12 11 100 9 108 -3
12 -17 9 -25 -7 -19 -8 4 -15 1 -15 -5 0 -6 5 -11 11 -11 8 0 8 -4 0 -14 -9
-10 -8 -15 2 -19 19 -7 41 8 33 22 -4 6 -2 11 4 11 8 0 10 -9 6 -24 -5 -22 -1
-26 38 -41 25 -10 50 -14 57 -9 9 5 10 2 6 -11 -6 -14 -3 -16 13 -12 11 3 18
2 15 -3 -8 -13 22 -20 55 -13 26 5 30 3 30 -16 0 -14 4 -20 11 -15 6 3 15 1
19 -6 4 -7 19 -14 34 -15 14 -2 33 -11 42 -20 9 -9 23 -14 30 -11 8 3 14 2 14
-3 0 -13 68 -30 103 -25 22 3 28 2 18 -5 -11 -7 -10 -11 8 -20 12 -7 27 -9 34
-5 9 5 9 4 1 -5 -20 -22 -357 112 -693 275 -101 49 -181 93 -181 101 0 7 -5
13 -11 13 -5 0 -7 -5 -4 -10 4 -6 -67 26 -158 71 l-164 82 47 24 c50 25 75 60
72 99 -1 15 2 22 8 19 6 -3 10 -1 10 4 0 6 -4 11 -10 11 -5 0 -10 6 -10 14 0
30 -37 76 -77 96 -24 12 -43 25 -43 29 0 5 -10 6 -22 4 -13 -2 -32 3 -43 12
-20 16 -20 16 1 6 15 -7 25 -7 34 2 10 9 11 9 6 0 -10 -17 6 -16 30 2 23 17
27 18 19 5z m4785 -4 c0 -2 -8 -10 -17 -17 -16 -13 -17 -12 -4 4 13 16 21 21
21 13z m-1550 -16 c14 22 7 -30 -8 -55 -9 -16 -18 -17 -9 0 1 2 -7 11 -18 20
-16 12 -17 14 -2 9 9 -3 17 -1 17 5 0 6 -5 11 -11 11 -5 0 -7 5 -3 11 4 8 9 7
15 -2 8 -12 11 -11 19 1z m-2560 -59 c8 -8 9 -11 3 -7 -7 4 -13 3 -13 -2 0 -5
-6 -9 -13 -9 -7 0 -14 14 -15 31 -1 26 0 29 11 16 7 -8 19 -21 27 -29z m-66
12 c9 -22 -16 -37 -30 -18 -6 8 -16 15 -23 15 -6 0 -11 5 -11 10 0 17 57 11
64 -7z m-399 -81 c-9 -9 -24 19 -19 35 13 44 18 46 22 9 2 -21 1 -41 -3 -44z
m2962 38 c1 -11 -3 -20 -8 -20 -6 0 -7 5 -4 10 3 6 1 10 -5 10 -6 0 -8 5 -5
10 10 16 21 11 22 -10z m-2463 -7 c3 -7 12 -13 21 -13 8 0 15 -8 14 -17 0 -11
-3 -13 -6 -5 -2 6 -11 12 -19 12 -9 0 -12 -5 -9 -12 4 -7 -2 -2 -14 12 -16 21
-22 23 -33 12 -11 -11 -10 -12 6 -6 14 5 17 4 12 -5 -5 -7 -15 -10 -23 -7 -11
4 -13 2 -10 -9 9 -21 -14 -31 -28 -12 -20 27 -42 20 -50 -15 l-7 -33 -10 28
c-16 45 12 65 77 55 12 -2 19 2 17 10 -1 8 2 11 7 8 5 -4 12 -3 15 2 8 13 35
10 40 -5z m-534 -63 c0 -11 6 -23 14 -26 17 -7 10 -34 -9 -34 -13 0 -30 28
-27 43 1 4 -3 7 -9 7 -8 0 -8 4 0 14 6 7 8 22 4 32 -6 18 -6 18 10 2 9 -9 17
-26 17 -38z m629 -7 c2 -1 -14 -1 -34 0 -23 1 -40 -3 -42 -10 -3 -7 0 -13 7
-13 6 0 8 4 5 10 -3 5 0 7 9 4 12 -4 12 -9 3 -18 -9 -10 -17 -10 -38 3 -27 15
-29 40 -3 42 28 3 32 4 40 12 4 4 17 -1 28 -10 12 -10 23 -19 25 -20z m2334 2
c-3 -9 -8 -14 -10 -11 -3 3 -2 9 2 15 9 16 15 13 8 -4z m-2359 -39 c-6 -15
-24 -23 -24 -11 0 8 24 34 28 30 1 -1 0 -10 -4 -19z m66 9 c0 -1 -9 -5 -19 -8
-13 -3 -18 -1 -14 9 4 10 33 10 33 -1z m-210 -10 c0 -16 -17 -19 -45 -9 -13 5
-14 8 -3 15 21 14 48 10 48 -6z m2542 8 c-10 -4 -10 -8 -1 -19 10 -12 9 -13
-5 -8 -24 9 -18 35 8 33 6 0 5 -3 -2 -6z m-436 -25 c3 -4 -1 -5 -10 -4 -8 1
-18 5 -22 8 -3 4 1 5 10 4 8 -1 18 -5 22 -8z m-1838 -14 c12 -8 22 -20 22 -26
0 -7 -6 -5 -12 4 -7 8 -22 20 -33 26 -11 6 -15 12 -10 12 6 0 21 -7 33 -16z
m1765 -1 c-6 -16 -5 -17 12 -3 10 8 16 9 11 3 -4 -7 -2 -23 5 -35 l11 -23 -21
23 c-12 12 -27 22 -33 22 -7 0 -6 5 2 15 16 20 21 19 13 -2z m-33 -17 c0 -2
-8 -10 -17 -17 -16 -13 -17 -12 -4 4 13 16 21 21 21 13z m-1733 -28 c-3 -8 -6
-5 -6 6 -1 11 2 17 5 13 3 -3 4 -12 1 -19z m1897 4 c3 -5 -1 -9 -9 -9 -8 0
-12 4 -9 9 3 4 7 8 9 8 2 0 6 -4 9 -8z m-2656 -21 c10 -6 10 -10 -2 -20 -10
-8 -16 -9 -21 -1 -3 5 0 10 7 10 9 0 9 3 -2 10 -8 5 -10 10 -5 10 6 0 16 -4
23 -9z m846 -18 c4 -9 4 -18 1 -21 -3 -3 -5 0 -5 7 0 7 -6 11 -13 8 -8 -3 -20
-1 -28 4 -12 8 -12 10 0 18 18 11 38 4 45 -16z m30 4 c7 -7 11 -17 9 -23 -2
-7 3 -14 12 -18 13 -5 15 -1 10 17 l-6 22 13 -23 c11 -17 16 -20 26 -10 9 9
12 9 12 0 0 -7 -3 -12 -7 -13 -5 0 -15 -2 -23 -3 -23 -5 -62 13 -55 24 4 6 1
17 -5 25 -15 18 -3 20 14 2z m1495 -34 c13 -10 10 -10 -15 -1 -24 9 -29 14
-20 24 8 9 12 9 15 1 2 -7 11 -17 20 -24z m18 23 c0 -8 -6 -12 -15 -9 -11 5
-11 7 0 14 7 5 13 9 14 9 0 0 1 -6 1 -14z m153 4 c0 -5 -4 -10 -10 -10 -5 0
-10 5 -10 10 0 6 5 10 10 10 6 0 10 -4 10 -10z m150 -33 c0 -4 4 -6 9 -2 5 3
12 2 15 -3 2 -4 -8 -8 -24 -7 -17 0 -25 4 -20 9 5 5 5 18 -1 30 -10 20 -10 20
5 2 9 -11 16 -24 16 -29z m-380 18 c0 -2 -9 -9 -20 -15 -12 -6 -20 -7 -20 -1
0 5 8 12 18 14 9 3 18 5 20 6 1 0 2 -1 2 -4z m-74 -30 c-11 -8 -25 -15 -30
-15 -6 1 0 7 14 15 32 19 40 18 16 0z m-1206 -21 c0 -2 -9 0 -20 6 -11 6 -20
13 -20 16 0 2 9 0 20 -6 11 -6 20 -13 20 -16z m1784 -23 c-2 -3 -12 3 -22 13
-16 17 -16 18 5 5 12 -7 20 -15 17 -18z m-1731 5 c7 3 5 0 -4 -8 -9 -7 -14
-20 -11 -28 2 -9 -2 -7 -11 5 -12 15 -13 23 -4 34 8 9 12 10 15 2 2 -6 9 -9
15 -5z m1077 4 c0 -5 -2 -10 -4 -10 -3 0 -8 5 -11 10 -3 6 -1 10 4 10 6 0 11
-4 11 -10z m608 -20 c7 -11 11 -20 9 -20 -2 0 -12 9 -22 20 -10 11 -14 20 -9
20 5 0 15 -9 22 -20z m342 6 c0 -8 -7 -16 -15 -20 -13 -4 -14 -2 -5 14 13 23
20 26 20 6z m1262 -14 c-7 -2 -9 -9 -5 -15 3 -7 2 -8 -2 -4 -16 14 -14 36 3
29 10 -4 12 -7 4 -10z m-3149 -23 c-10 -4 -23 -3 -28 2 -6 4 -23 6 -38 5 -15
-2 -30 1 -34 7 -3 6 -1 7 5 3 6 -3 13 -3 16 2 3 5 26 4 51 -2 32 -8 40 -12 28
-17z m844 25 c-3 -3 -12 -4 -19 -1 -8 3 -5 6 6 6 11 1 17 -2 13 -5z m107 -12
c3 -5 -1 -9 -9 -9 -8 0 -12 4 -9 9 3 4 7 8 9 8 2 0 6 -4 9 -8z m691 -2 c3 -6
-1 -7 -9 -4 -18 7 -21 14 -7 14 6 0 13 -4 16 -10z m-2588 -34 c-6 -17 -51 -13
-55 5 -2 12 4 15 28 11 17 -2 29 -9 27 -16z m1680 18 c-3 -3 -12 -4 -19 -1 -8
3 -5 6 6 6 11 1 17 -2 13 -5z m-617 -14 c13 -8 13 -10 -2 -10 -9 0 -20 5 -23
10 -8 13 5 13 25 0z m577 4 c-3 -3 -12 -4 -19 -1 -8 3 -5 6 6 6 11 1 17 -2 13
-5z m1210 -8 c0 -8 -6 -12 -15 -9 -11 5 -11 7 0 14 7 5 13 9 14 9 0 0 1 -6 1
-14z m1158 4 c-9 -14 8 -13 23 2 6 6 14 9 17 6 3 -3 -10 -15 -30 -26 -19 -12
-35 -17 -35 -12 0 6 5 10 10 10 6 0 9 3 9 8 -2 12 1 22 7 22 3 0 2 -4 -1 -10z
m-3968 -6 c-3 -3 -12 -4 -19 -1 -8 3 -5 6 6 6 11 1 17 -2 13 -5z m769 -9 c-26
-19 -42 -19 -26 0 7 8 20 15 29 15 13 -1 13 -3 -3 -15z m307 0 c7 -18 -6 -27
-27 -19 -13 5 -14 9 -5 20 15 18 25 18 32 -1z m467 5 c0 -5 -8 -10 -17 -10
-15 0 -16 2 -3 10 19 12 20 12 20 0z m1056 -12 c19 -22 19 -22 0 -8 -18 14
-19 13 -13 -3 4 -10 3 -16 -2 -12 -8 4 -12 45 -5 45 0 0 9 -10 20 -22z m-1449
6 c-3 -3 -12 -4 -19 -1 -8 3 -5 6 6 6 11 1 17 -2 13 -5z m305 -1 c-6 -2 -10
-8 -8 -11 2 -4 -10 -8 -26 -8 l-31 -1 24 13 c13 7 31 13 39 13 10 0 11 -2 2
-6z m-149 -10 c-18 -2 -48 -2 -65 0 -18 2 -4 4 32 4 36 0 50 -2 33 -4z m1323
-21 c-17 -16 -18 -16 -5 5 7 12 15 20 18 17 3 -2 -3 -12 -13 -22z m1304 10 c0
-5 -12 -14 -27 -21 l-28 -12 25 21 c29 22 30 23 30 12z m-3130 -12 c0 -5 -7
-10 -16 -10 -8 0 -12 5 -9 10 3 6 10 10 16 10 5 0 9 -4 9 -10z m793 3 c-7 -2
-19 -2 -25 0 -7 3 -2 5 12 5 14 0 19 -2 13 -5z m1097 -3 c0 -5 -2 -10 -4 -10
-3 0 -8 5 -11 10 -3 6 -1 10 4 10 6 0 11 -4 11 -10z m1160 -34 c0 -2 -7 -7
-16 -10 -8 -3 -12 -2 -9 4 6 10 25 14 25 6z m-40 -21 c0 -2 -10 -9 -22 -15
-22 -11 -22 -10 -4 4 21 17 26 19 26 11z m-3534 -34 c-12 -19 -24 -12 -19 10
4 13 9 17 15 11 6 -6 7 -15 4 -21z m49 -11 c3 -6 -1 -7 -9 -4 -18 7 -21 14 -7
14 6 0 13 -4 16 -10z m1 -31 c3 -6 -5 -3 -20 6 -14 10 -26 19 -26 22 0 7 39
-17 46 -28z m3394 27 c0 -2 -13 -9 -30 -15 -35 -12 -41 -5 -7 9 25 10 37 12
37 6z m-3445 -16 c8 -13 -5 -13 -25 0 -13 8 -13 10 2 10 9 0 20 -4 23 -10z
m3365 -25 c0 -2 -6 -5 -13 -8 -8 -3 -14 1 -14 8 0 7 6 11 14 8 7 -3 13 -6 13
-8z m-3886 -68 c296 -125 429 -250 358 -337 -15 -18 -31 -24 -78 -26 -56 -3
-57 -3 -19 6 75 19 95 31 95 57 0 85 -114 173 -380 294 -202 92 -187 96 24 6z
m3836 54 c0 -10 -130 -74 -137 -67 -3 2 5 7 18 11 17 6 19 9 8 17 -11 8 -10 9
4 4 17 -5 89 22 95 37 5 10 12 9 12 -2z m-4538 -6 c3 -3 -8 -31 -24 -61 -34
-69 -35 -113 -3 -179 l24 -50 -27 -22 c-15 -13 -31 -23 -35 -23 -5 0 -43 32
-85 71 -74 68 -111 117 -112 150 0 19 44 61 88 84 49 24 160 44 174 30z m1433
-25 c-3 -5 2 -10 12 -11 11 0 13 -3 5 -6 -18 -7 -44 5 -37 17 3 5 11 10 16 10
6 0 7 -4 4 -10z m-1255 -21 c40 -11 78 -22 82 -25 5 -3 -7 -23 -26 -44 -48
-53 -66 -92 -66 -140 0 -34 -4 -42 -26 -52 -21 -10 -36 -8 -82 7 -56 19 -57
21 -70 70 -14 56 -8 133 14 177 12 24 20 28 57 28 23 0 76 -9 117 -21z m1327
-15 c-3 -3 -12 -4 -19 -1 -8 3 -5 6 6 6 11 1 17 -2 13 -5z m2873 -14 c-8 -5
-19 -10 -25 -10 -5 0 -3 5 5 10 8 5 20 10 25 10 6 0 3 -5 -5 -10z m-3982 -46
c42 -15 140 -55 217 -89 266 -119 286 -129 279 -145 -4 -8 -6 -22 -6 -31 1
-40 -458 -53 -557 -15 -24 9 -46 15 -47 13 -2 -2 15 -26 39 -54 24 -27 55 -78
71 -113 24 -53 28 -72 24 -126 -3 -45 -9 -69 -22 -82 -18 -16 -18 -16 -7 4 6
12 13 46 17 75 5 48 2 61 -25 112 -35 67 -139 217 -150 217 -11 0 -41 56 -41
79 0 68 83 199 118 186 7 -3 48 -17 90 -31z m3922 21 c-14 -8 -29 -14 -35 -14
-5 0 1 6 15 14 14 8 30 14 35 14 6 0 -1 -6 -15 -14z m-2655 -5 c13 -5 14 -9 5
-9 -8 0 -24 4 -35 9 -13 5 -14 9 -5 9 8 0 24 -4 35 -9z m2605 -10 c0 -5 -5
-10 -11 -10 -5 0 -7 5 -4 10 3 6 8 10 11 10 2 0 4 -4 4 -10z m-4537 -49 c10
-22 48 -68 86 -103 37 -36 71 -70 75 -76 10 -16 -3 -60 -21 -66 -21 -9 -162
41 -202 71 -31 24 -33 29 -29 73 4 43 52 140 69 140 3 0 13 -18 22 -39z m4497
29 c-8 -5 -19 -10 -25 -10 -5 0 -3 5 5 10 8 5 20 10 25 10 6 0 3 -5 -5 -10z
m-2455 -57 c33 -9 68 -16 78 -15 9 0 17 -3 17 -7 0 -4 44 -18 98 -31 53 -12
104 -27 112 -32 11 -7 10 -8 -5 -4 -11 3 -33 8 -50 12 -80 18 -320 86 -334 95
-13 9 -12 9 4 4 11 -4 47 -14 80 -22z m2300 8 c-13 -11 -81 -34 -71 -24 4 5
22 13 39 20 40 15 43 15 32 4z m-2075 -11 c0 -5 -5 -10 -11 -10 -5 0 -7 5 -4
10 3 6 8 10 11 10 2 0 4 -4 4 -10z m1980 -21 c0 -14 -27 -10 -33 5 -4 10 0 12
14 9 10 -3 19 -9 19 -14z m-1805 -57 c-3 -3 -11 0 -18 7 -9 10 -8 11 6 5 10
-3 15 -9 12 -12z m1658 11 c-7 -2 -19 -2 -25 0 -7 3 -2 5 12 5 14 0 19 -2 13
-5z m-1706 -9 c-3 -3 -12 -4 -19 -1 -8 3 -5 6 6 6 11 1 17 -2 13 -5z m1660 0
c-3 -3 -12 -4 -19 -1 -8 3 -5 6 6 6 11 1 17 -2 13 -5z m-92 -22 c-3 -3 -11 0
-18 7 -9 10 -8 11 6 5 10 -3 15 -9 12 -12z m48 11 c-7 -2 -19 -2 -25 0 -7 3
-2 5 12 5 14 0 19 -2 13 -5z m-1600 -10 c-7 -2 -19 -2 -25 0 -7 3 -2 5 12 5
14 0 19 -2 13 -5z m147 -17 c14 -1 27 -4 30 -8 3 -4 35 -11 70 -16 36 -5 52
-10 37 -11 -31 -1 -259 38 -267 46 -3 3 20 2 50 -3 30 -4 66 -8 80 -8z m1363
7 c-7 -2 -19 -2 -25 0 -7 3 -2 5 12 5 14 0 19 -2 13 -5z m-50 -10 c-7 -2 -21
-2 -30 0 -10 3 -4 5 12 5 17 0 24 -2 18 -5z m-60 -10 c-7 -2 -19 -2 -25 0 -7
3 -2 5 12 5 14 0 19 -2 13 -5z m-60 -10 c-7 -2 -21 -2 -30 0 -10 3 -4 5 12 5
17 0 24 -2 18 -5z m-70 -10 c-7 -2 -19 -2 -25 0 -7 3 -2 5 12 5 14 0 19 -2 13
-5z m-890 -10 c-13 -2 -33 -2 -45 0 -13 2 -3 4 22 4 25 0 35 -2 23 -4z m826 3
c-2 -2 -31 -6 -64 -9 -39 -4 -50 -3 -30 2 31 9 102 14 94 7z m-3638 -31 c24
-14 67 -32 94 -41 58 -20 65 -27 65 -75 0 -45 -26 -80 -79 -104 -40 -18 -42
-18 -61 0 -54 48 -115 245 -77 245 8 0 35 -11 58 -25z m2912 18 c-13 -2 -35
-2 -50 0 -16 2 -5 4 22 4 28 0 40 -2 28 -4z m585 0 c-10 -2 -28 -2 -40 0 -13
2 -5 4 17 4 22 1 32 -1 23 -4z m-196 -10 c-62 -2 -161 -2 -220 0 -59 1 -8 3
113 3 121 0 169 -2 107 -3z m-2611 -81 c90 -58 147 -153 136 -231 -5 -44 -35
-111 -48 -111 -5 0 -3 13 5 28 28 55 30 123 6 175 -22 48 -91 117 -142 143
-16 8 -28 17 -28 19 0 12 30 2 71 -23z m554 -29 c66 -19 125 -36 130 -38 6 -2
-7 -4 -27 -4 -21 -1 -64 8 -95 19 -32 11 -98 28 -146 39 -49 11 -91 22 -95 26
-15 15 124 -10 233 -42z m-421 2 c23 -13 54 -37 68 -52 39 -41 80 -130 84
-182 l4 -46 -14 46 c-21 72 -67 149 -111 185 -22 18 -51 42 -65 53 -34 28 -17
26 34 -4z m-629 -129 c9 -13 53 -45 99 -71 117 -65 159 -101 146 -125 -5 -10
-20 -22 -32 -26 -17 -5 -34 7 -95 72 -74 78 -74 56 0 -26 20 -23 37 -46 37
-51 0 -12 -36 -11 -82 1 -32 9 -42 20 -74 80 -21 38 -40 68 -42 66 -2 -2 8
-26 22 -52 14 -26 23 -50 21 -53 -10 -9 -81 57 -102 95 -24 43 -21 52 31 92
37 28 52 28 71 -2z"/>
<path d="M4355 5561 c-6 -11 13 -26 22 -17 4 3 1 6 -6 6 -7 0 -9 5 -6 10 3 6
4 10 1 10 -3 0 -7 -4 -11 -9z"/>
<path d="M4408 5539 c-4 -11 1 -15 17 -15 15 0 21 5 18 14 -4 10 -8 11 -13 2
-6 -9 -9 -9 -12 1 -3 10 -6 9 -10 -2z"/>
<path d="M4518 5493 c6 -2 18 -2 25 0 6 3 1 5 -13 5 -14 0 -19 -2 -12 -5z"/>
<path d="M4318 5468 c6 -6 18 -8 28 -6 14 3 12 5 -9 10 -19 3 -25 2 -19 -4z"/>
<path d="M4634 5463 c3 -3 17 -7 32 -9 14 -1 23 0 20 3 -3 4 -18 8 -32 9 -14
2 -24 0 -20 -3z"/>
<path d="M4506 5441 c-3 -4 6 -6 19 -3 14 2 25 6 25 8 0 8 -39 4 -44 -5z"/>
<path d="M3805 5191 c-3 -5 -2 -12 3 -15 5 -3 9 1 9 9 0 17 -3 19 -12 6z"/>
<path d="M3953 5193 c9 -2 25 -2 35 0 9 3 1 5 -18 5 -19 0 -27 -2 -17 -5z"/>
<path d="M3858 5153 c7 -3 16 -2 19 1 4 3 -2 6 -13 5 -11 0 -14 -3 -6 -6z"/>
<path d="M3903 5153 c-17 -6 -17 -20 0 -26 8 -3 13 3 13 14 0 11 0 19 -1 18 0
0 -6 -3 -12 -6z"/>
<path d="M4215 5110 c3 -5 8 -10 11 -10 2 0 4 5 4 10 0 6 -5 10 -11 10 -5 0
-7 -4 -4 -10z"/>
<path d="M4162 5048 c7 -19 38 -22 38 -4 0 10 -9 16 -21 16 -12 0 -19 -5 -17
-12z"/>
<path d="M4825 5399 c-10 -15 3 -25 16 -12 7 7 7 13 1 17 -6 3 -14 1 -17 -5z"/>
<path d="M4887 5379 c7 -7 15 -10 18 -7 3 3 -2 9 -12 12 -14 6 -15 5 -6 -5z"/>
<path d="M4845 5370 c-3 -6 1 -7 9 -4 18 7 21 14 7 14 -6 0 -13 -4 -16 -10z"/>
<path d="M5000 5330 c0 -5 6 -10 14 -10 8 0 23 -3 33 -6 10 -3 7 2 -7 10 -30
18 -40 20 -40 6z"/>
<path d="M4960 5310 c0 -5 7 -10 15 -10 8 0 15 5 15 10 0 6 -7 10 -15 10 -8 0
-15 -4 -15 -10z"/>
<path d="M5340 5233 c5 -2 8 -9 4 -14 -3 -5 0 -9 6 -9 15 0 7 23 -8 26 -7 1
-8 0 -2 -3z"/>
<path d="M3208 5003 c6 -2 18 -2 25 0 6 3 1 5 -13 5 -14 0 -19 -2 -12 -5z"/>
<path d="M3620 4895 c6 -8 20 -12 31 -10 13 3 23 -3 28 -17 l8 -22 5 22 c3 12
3 21 -1 20 -3 0 -9 1 -13 2 -5 1 -12 4 -18 5 -5 1 -11 3 -12 5 -2 1 -11 3 -21
5 -14 3 -16 0 -7 -10z"/>
<path d="M3528 4893 c7 -3 16 -2 19 1 4 3 -2 6 -13 5 -11 0 -14 -3 -6 -6z"/>
<path d="M3555 4870 c-18 -8 -17 -9 8 -9 16 -1 26 3 22 9 -3 6 -7 10 -8 9 -1
0 -11 -4 -22 -9z"/>
<path d="M3775 4840 c10 -11 20 -20 23 -20 3 0 -3 9 -13 20 -10 11 -20 20 -23
20 -3 0 3 -9 13 -20z"/>
<path d="M3585 4830 c-3 -5 -1 -10 4 -10 6 0 11 5 11 10 0 6 -2 10 -4 10 -3 0
-8 -4 -11 -10z"/>
<path d="M3800 4810 c-9 -6 -10 -10 -3 -10 6 0 15 5 18 10 8 12 4 12 -15 0z"/>
<path d="M3876 4812 c-3 -5 1 -9 9 -9 8 0 15 4 15 9 0 4 -4 8 -9 8 -6 0 -12
-4 -15 -8z"/>
<path d="M3932 4805 c4 -4 3 -14 -4 -22 -8 -11 -7 -12 6 -7 19 7 21 20 4 30
-7 4 -10 4 -6 -1z"/>
<path d="M2838 4533 c7 -3 16 -2 19 1 4 3 -2 6 -13 5 -11 0 -14 -3 -6 -6z"/>
<path d="M2875 4530 c-3 -6 1 -7 9 -4 18 7 21 14 7 14 -6 0 -13 -4 -16 -10z"/>
<path d="M3300 4475 c0 -8 6 -15 14 -15 22 0 28 17 10 24 -22 9 -24 8 -24 -9z"/>
<path d="M3000 4470 c18 -12 30 -13 30 -2 0 4 -10 9 -22 9 -18 2 -20 0 -8 -7z"/>
<path d="M3126 4465 c7 -17 43 -40 51 -32 2 3 -5 8 -16 12 -12 3 -21 13 -21
21 0 8 -4 14 -10 14 -5 0 -7 -7 -4 -15z"/>
<path d="M3090 4466 c0 -2 7 -7 16 -10 8 -3 12 -2 9 4 -6 10 -25 14 -25 6z"/>
<path d="M3201 4447 c-8 -10 -7 -14 4 -14 8 0 15 6 15 14 0 7 -2 13 -4 13 -2
0 -9 -6 -15 -13z"/>
<path d="M3304 4416 c1 -27 36 -45 36 -19 0 13 -23 43 -33 43 -3 0 -4 -11 -3
-24z"/>
<path d="M3440 4430 c0 -5 9 -10 21 -10 11 0 17 5 14 10 -3 6 -13 10 -21 10
-8 0 -14 -4 -14 -10z"/>
<path d="M3399 4392 c-14 -6 -10 -10 16 -24 33 -17 34 -16 30 4 -3 11 -7 23
-11 27 -4 3 -4 -2 -1 -12 5 -13 3 -17 -5 -14 -7 2 -12 10 -10 16 1 6 1 11 0
10 -2 0 -10 -3 -19 -7z"/>
<path d="M3480 4394 c0 -2 9 -8 20 -14 15 -8 18 -8 14 3 -4 11 -34 21 -34 11z"/>
<path d="M3463 4365 c0 -8 4 -12 9 -9 4 3 8 9 8 15 0 5 -4 9 -8 9 -5 0 -9 -7
-9 -15z"/>
<path d="M3565 4350 c-3 -5 -1 -10 4 -10 6 0 11 5 11 10 0 6 -2 10 -4 10 -3 0
-8 -4 -11 -10z"/>
<path d="M3680 4320 c0 -5 4 -10 9 -10 6 0 13 5 16 10 3 6 -1 10 -9 10 -9 0
-16 -4 -16 -10z"/>
<path d="M3774 4317 c-5 -15 -44 -21 -44 -7 0 5 -7 7 -15 4 -23 -9 -18 -23 8
-22 56 0 97 11 97 24 0 18 -39 19 -46 1z"/>
<path d="M3883 4311 c-18 -9 -33 -19 -33 -23 0 -11 54 -10 66 1 5 5 20 11 34
13 14 1 25 8 25 13 0 16 -57 14 -92 -4z"/>
<path d="M5227 4543 c67 -159 57 -319 -32 -482 -19 -36 -33 -66 -32 -68 7 -6
47 29 42 38 -3 5 0 6 8 3 19 -7 74 57 98 113 59 139 41 296 -47 393 -45 50
-58 51 -37 3z m63 -75 c0 -11 7 -26 15 -34 8 -9 15 -20 15 -26 0 -6 -11 1 -24
15 -28 30 -45 97 -20 76 8 -6 14 -20 14 -31z m-3 -70 c-3 -8 -6 -5 -6 6 -1 11
2 17 5 13 3 -3 4 -12 1 -19z m32 -102 c-9 -8 -10 -7 -5 7 3 10 7 31 8 45 1 22
2 21 5 -7 3 -19 -1 -38 -8 -45z m2 -21 c11 7 11 -32 0 -60 l-8 -20 -6 20 c-3
11 -8 36 -12 55 -5 28 -4 31 5 17 6 -9 15 -15 21 -12z m-35 -45 c-3 -17 -2
-29 3 -26 14 9 21 -22 12 -47 -14 -36 -39 -53 -54 -37 -7 7 -7 10 -2 7 6 -3
17 -2 25 4 10 6 11 9 3 9 -7 0 -13 5 -13 10 0 6 3 9 8 9 18 -3 22 2 12 20 -9
18 -4 81 8 81 2 0 2 -14 -2 -30z m-32 -126 c13 -5 11 -10 -9 -32 -13 -14 -27
-23 -31 -19 -4 4 -2 7 5 7 7 0 10 4 7 9 -6 8 2 41 9 41 2 0 10 -3 19 -6z"/>
<path d="M4899 4441 c-33 -33 -37 -67 -14 -111 30 -59 98 -68 146 -21 38 39
39 87 3 130 -36 43 -93 44 -135 2z m95 10 c11 -4 15 -10 9 -14 -5 -3 -19 0
-29 8 -20 15 -11 18 20 6z m-26 -17 c12 -8 20 -20 17 -25 -4 -5 -1 -9 4 -9 6
0 11 6 12 13 0 12 17 -20 18 -37 1 -5 -15 -6 -34 -3 -19 3 -35 2 -35 -4 0 -5
-7 -9 -16 -9 -13 0 -14 -3 -5 -14 9 -11 9 -15 -1 -19 -7 -2 -5 -3 5 -2 9 2 17
0 17 -4 0 -4 11 -8 24 -9 16 -1 26 6 34 23 6 14 17 25 23 25 7 0 8 12 4 33 -5
26 -4 29 5 14 15 -23 3 -77 -16 -77 -9 0 -12 -5 -9 -10 7 -11 -5 -17 -48 -24
-15 -3 -25 -1 -22 4 3 5 -5 10 -17 12 -16 2 -22 9 -20 22 2 11 -1 15 -7 11
-11 -6 -16 9 -11 30 2 6 3 19 2 30 0 11 2 14 5 7 3 -6 9 -10 13 -7 5 3 6 13 3
23 -4 9 5 4 20 -13 14 -16 27 -24 27 -17 0 6 -5 12 -12 12 -6 0 -8 3 -5 7 4 3
2 12 -4 20 -15 18 2 17 29 -3z m12 -89 c0 -8 -7 -15 -15 -15 -8 0 -15 7 -15
15 0 8 7 15 15 15 8 0 15 -7 15 -15z"/>
<path d="M4897 4376 c-4 -10 -1 -13 9 -9 15 6 19 23 5 23 -5 0 -11 -7 -14 -14z"/>
<path d="M4563 4291 c2 -23 5 -27 15 -19 10 9 10 13 1 18 -6 4 -8 13 -5 19 4
6 3 11 -3 11 -6 0 -9 -13 -8 -29z"/>
<path d="M4565 4450 c-3 -6 1 -7 9 -4 18 7 21 14 7 14 -6 0 -13 -4 -16 -10z"/>
<path d="M3918 4193 c7 -3 16 -2 19 1 4 3 -2 6 -13 5 -11 0 -14 -3 -6 -6z"/>
<path d="M3970 3888 c12 -11 100 -58 100 -54 0 8 -54 43 -80 51 -14 4 -23 5
-20 3z"/>
<path d="M4094 3826 c12 -10 28 -14 40 -10 12 4 18 3 14 -1 -8 -9 20 -34 37
-34 6 0 1 6 -9 14 -11 8 -14 15 -7 15 7 0 9 4 6 10 -3 5 -21 9 -39 8 -18 -1
-39 2 -47 6 -8 4 -5 0 5 -8z"/>
<path d="M4450 3660 c-23 -14 8 -22 45 -11 17 5 22 10 13 10 -9 1 -22 3 -30 6
-7 3 -20 1 -28 -5z"/>
<path d="M4500 3631 c0 -5 7 -11 15 -15 8 -3 15 -1 15 3 0 5 -7 11 -15 15 -8
3 -15 1 -15 -3z"/>
<path d="M4765 3500 c3 -5 10 -10 16 -10 5 0 9 5 9 10 0 6 -7 10 -16 10 -8 0
-12 -4 -9 -10z"/>
<path d="M5440 3720 c0 -5 5 -10 11 -10 5 0 7 5 4 10 -3 6 -8 10 -11 10 -2 0
-4 -4 -4 -10z"/>
<path d="M4102 3223 c2 -12 12 -18 28 -18 36 0 33 29 -3 33 -23 3 -28 0 -25
-15z"/>
<path d="M995 6870 c4 -6 1 -17 -5 -25 -16 -20 -3 -19 16 0 15 15 11 35 -7 35
-6 0 -7 -5 -4 -10z"/>
<path d="M1010 6820 c0 -5 5 -10 10 -10 6 0 10 5 10 10 0 6 -4 10 -10 10 -5 0
-10 -4 -10 -10z"/>
<path d="M1007 6731 c-4 -17 -3 -21 5 -13 5 5 8 16 6 23 -3 8 -7 3 -11 -10z"/>
<path d="M1050 1285 l0 -525 135 0 135 0 0 205 0 205 215 0 215 0 0 100 0 100
-215 0 -215 0 0 115 0 115 250 0 250 0 0 105 0 105 -385 0 -385 0 0 -525z"/>
<path d="M6080 1285 l0 -525 120 0 120 0 2 398 c2 218 6 390 10 382 3 -8 66
-187 139 -397 l133 -383 107 0 106 0 131 393 130 392 1 -392 1 -393 125 0 125
0 0 525 0 525 -193 0 -194 0 -102 -330 c-56 -182 -108 -346 -114 -365 -12 -35
-13 -33 -76 157 -35 106 -91 271 -123 366 l-60 172 -194 0 -194 0 0 -525z"/>
<path d="M9080 1630 l0 -181 -37 30 c-56 45 -116 63 -208 63 -199 0 -333 -108
-373 -300 -32 -159 13 -319 120 -417 47 -44 73 -59 129 -76 136 -41 285 -6
350 84 l29 40 0 -56 0 -57 125 0 125 0 0 525 0 525 -130 0 -130 0 0 -180z
m-77 -293 c54 -41 77 -98 77 -193 0 -94 -20 -144 -73 -191 -68 -60 -168 -53
-230 16 -42 46 -57 93 -57 176 0 108 32 173 102 209 50 25 136 17 181 -17z"/>
<path d="M2275 1543 c-183 -13 -298 -78 -330 -187 -8 -27 -15 -53 -15 -58 0
-4 56 -8 125 -8 100 0 125 3 125 14 0 8 16 28 35 45 31 27 43 31 95 31 92 0
128 -25 133 -95 3 -40 -20 -49 -188 -74 -169 -24 -233 -44 -284 -87 -50 -43
-71 -89 -71 -156 1 -133 97 -219 267 -235 66 -6 170 10 215 33 15 8 43 28 62
44 l33 30 7 -40 6 -40 116 0 c105 0 115 2 110 18 -13 48 -16 96 -20 319 -4
215 -7 248 -25 288 -22 50 -59 88 -111 115 -57 29 -194 50 -285 43z m166 -566
c-18 -45 -84 -81 -161 -85 -59 -4 -70 -1 -94 20 -48 41 -35 116 25 149 9 4 61
18 115 30 55 11 104 25 109 30 14 14 19 -110 6 -144z"/>
<path d="M4005 1536 c-71 -18 -114 -43 -157 -89 l-38 -40 0 56 0 57 -117 0
-118 0 0 -380 0 -380 125 0 125 0 0 238 c0 220 2 240 21 277 39 77 147 106
213 57 48 -36 51 -50 51 -319 l0 -253 130 0 130 0 0 229 c0 244 5 277 48 324
52 55 151 56 203 1 l24 -26 3 -264 3 -264 130 0 129 0 -2 298 c-3 288 -4 298
-26 345 -13 26 -40 60 -60 77 -121 99 -360 83 -456 -31 l-30 -37 -43 48 c-24
26 -60 55 -81 63 -56 23 -149 28 -207 13z"/>
<path d="M5304 1535 c-147 -32 -221 -104 -231 -224 -10 -128 66 -189 296 -236
146 -30 208 -55 220 -87 21 -56 -32 -102 -117 -103 -68 0 -109 19 -137 62
l-20 32 -129 1 -129 0 6 -37 c12 -72 108 -157 216 -190 40 -13 91 -18 181 -18
142 0 207 15 282 65 122 81 133 278 19 353 -51 34 -106 51 -252 81 -142 29
-174 47 -174 97 0 46 48 73 119 65 57 -6 91 -26 114 -67 l17 -29 118 0 c128 0
124 -2 106 63 -23 83 -121 153 -243 176 -78 14 -186 13 -262 -4z"/>
<path d="M3267 1525 c-59 -22 -95 -52 -128 -108 l-30 -52 3 78 3 77 -112 0
-113 0 0 -380 0 -380 128 0 127 0 0 198 c0 184 1 200 22 238 44 82 105 112
203 101 l48 -6 16 92 c10 51 20 102 22 114 5 18 0 23 -33 32 -51 14 -110 13
-156 -4z"/>
<path d="M7761 1524 c-119 -32 -201 -98 -250 -203 -24 -51 -26 -67 -26 -176 0
-114 2 -123 31 -185 72 -150 216 -230 416 -230 183 0 319 74 373 203 l15 37
-122 0 c-114 0 -124 -2 -136 -21 -19 -30 -73 -49 -142 -49 -89 0 -142 34 -175
112 -30 72 -48 68 285 68 l300 0 0 69 c0 188 -103 334 -265 376 -74 19 -232
19 -304 -1z m247 -163 c38 -20 67 -59 82 -111 l9 -30 -181 0 -180 0 6 32 c8
42 52 97 90 114 46 20 130 17 174 -5z"/>
<path d="M1430 350 l0 -170 25 0 25 0 0 170 0 170 -25 0 -25 0 0 -170z"/>
<path d="M3530 459 l0 -60 -22 15 c-26 18 -90 21 -120 5 -44 -24 -63 -132 -32
-190 28 -56 111 -72 157 -32 15 15 17 15 17 0 0 -10 8 -17 20 -17 19 0 20 7
20 170 0 163 -1 170 -20 170 -18 0 -20 -7 -20 -61z m-37 -79 c32 -25 42 -69
27 -115 -31 -93 -133 -61 -133 42 0 38 4 50 27 70 33 28 46 29 79 3z"/>
<path d="M3784 350 l-61 -170 27 0 c24 0 29 6 40 45 l13 46 71 -3 71 -3 15
-42 c12 -37 18 -43 43 -43 20 0 26 4 20 13 -4 6 -32 82 -63 167 -53 151 -56
155 -85 158 l-30 3 -61 -171z m93 -38 c-27 -2 -51 -1 -53 1 -2 2 8 39 23 83
l26 79 27 -80 27 -80 -50 -3z"/>
<path d="M5047 502 c-20 -22 -22 -80 -3 -105 12 -15 9 -22 -20 -51 -27 -27
-34 -42 -34 -73 0 -89 85 -124 180 -73 19 10 24 10 32 -4 5 -9 22 -16 39 -16
l30 0 -26 34 c-24 32 -25 35 -10 69 20 48 19 57 -5 57 -13 0 -24 -10 -30 -26
l-10 -26 -30 38 -31 37 28 29 c33 35 37 93 8 114 -28 21 -98 18 -118 -4z m91
-43 c2 -16 -5 -32 -18 -44 -22 -19 -22 -19 -36 0 -8 10 -14 26 -14 35 0 44 63
53 68 9z m-8 -165 c32 -45 32 -47 15 -60 -30 -22 -81 -18 -99 8 -9 12 -16 28
-16 34 0 17 40 64 54 64 7 0 28 -21 46 -46z"/>
<path d="M5497 448 c-15 -40 -42 -117 -61 -171 l-36 -98 26 3 c21 2 30 12 43
47 l16 43 68 2 67 1 16 -47 c14 -43 19 -48 45 -48 21 0 28 4 23 12 -4 6 -33
82 -64 167 -55 151 -58 156 -87 159 -29 3 -31 0 -56 -70z m77 -41 c10 -34 21
-70 23 -79 5 -16 -2 -18 -47 -18 -45 0 -52 2 -47 18 23 82 43 142 47 142 3 0
13 -28 24 -63z"/>
<path d="M6190 493 c0 -16 6 -23 20 -23 14 0 20 7 20 23 0 16 -6 23 -20 23
-14 0 -20 -7 -20 -23z"/>
<path d="M6438 350 l-3 -170 28 0 27 0 0 170 0 170 -25 0 -24 0 -3 -170z"/>
<path d="M1830 470 c0 -36 -2 -40 -25 -40 -18 0 -25 -5 -25 -20 0 -15 7 -20
25 -20 25 0 25 0 25 -93 0 -104 6 -117 57 -117 26 0 33 4 33 20 0 15 -7 20
-25 20 -25 0 -25 1 -25 85 0 84 0 85 25 85 18 0 25 5 25 20 0 15 -7 20 -25 20
-22 0 -25 4 -25 40 0 33 -3 40 -20 40 -17 0 -20 -7 -20 -40z"/>
<path d="M2950 470 c0 -36 -2 -40 -25 -40 -18 0 -25 -5 -25 -20 0 -15 7 -20
25 -20 25 0 25 0 25 -93 0 -104 6 -117 57 -117 26 0 33 4 33 20 0 15 -7 20
-25 20 -25 0 -25 1 -25 85 0 84 0 85 25 85 18 0 25 5 25 20 0 15 -7 20 -25 20
-22 0 -25 4 -25 40 0 33 -3 40 -20 40 -17 0 -20 -7 -20 -40z"/>
<path d="M7874 499 c-3 -5 -4 -24 -2 -42 2 -27 -1 -33 -19 -35 -28 -4 -31 -32
-3 -32 18 0 20 -7 20 -86 0 -108 8 -124 61 -124 33 0 40 3 37 17 -2 10 -9 19
-16 19 -6 1 -16 2 -22 3 -6 0 -10 37 -10 86 0 84 0 85 25 85 16 0 25 6 25 15
0 9 -9 15 -25 15 -22 0 -25 4 -25 39 0 30 -4 40 -20 44 -11 3 -23 1 -26 -4z"/>
<path d="M8020 487 c0 -16 6 -23 20 -23 14 0 20 7 20 23 0 16 -6 23 -20 23
-14 0 -20 -7 -20 -23z"/>
<path d="M3153 429 c-87 -25 -110 -162 -37 -230 19 -18 37 -24 69 -24 47 0 97
29 103 59 5 23 -31 21 -53 -4 -10 -11 -30 -20 -45 -20 -29 0 -70 37 -70 63 0
15 12 17 90 17 l90 0 0 30 c0 81 -68 131 -147 109z m86 -55 c12 -15 21 -31 21
-35 0 -5 -31 -9 -70 -9 -77 0 -85 8 -48 47 29 31 71 30 97 -3z"/>
<path d="M4145 433 c-61 -11 -95 -59 -95 -133 0 -52 22 -96 60 -115 36 -19 57
-19 94 0 15 8 30 15 32 15 2 0 4 -25 4 -55 0 -48 2 -55 20 -55 19 0 20 7 20
170 0 163 -1 170 -20 170 -12 0 -20 -7 -20 -17 0 -14 -2 -15 -17 -1 -21 18
-50 25 -78 21z m50 -45 c49 -22 58 -115 15 -158 -26 -26 -58 -25 -87 2 -18 17
-23 32 -23 74 0 45 4 56 26 73 31 24 35 25 69 9z"/>
<path d="M1550 305 c0 -116 1 -125 19 -125 17 0 19 9 23 91 3 99 15 119 68
119 43 0 50 -16 50 -117 0 -86 1 -93 20 -93 19 0 20 7 20 103 0 90 -3 106 -20
125 -25 26 -85 30 -118 6 -20 -14 -22 -14 -22 0 0 9 -9 16 -20 16 -19 0 -20
-7 -20 -125z"/>
<path d="M2001 414 c-28 -20 -51 -72 -51 -115 0 -78 65 -137 138 -125 37 6 82
40 82 63 0 20 -33 16 -53 -7 -34 -40 -117 -12 -117 40 0 19 7 20 90 20 l90 0
0 30 c0 38 -24 86 -49 100 -30 15 -104 12 -130 -6z m106 -29 c11 -8 23 -24 26
-35 5 -19 1 -20 -64 -20 -76 0 -85 9 -49 48 24 25 57 28 87 7z"/>
<path d="M2255 400 c-35 -37 -45 -111 -21 -158 28 -55 99 -78 144 -46 21 15
22 14 22 -14 0 -16 -8 -36 -18 -45 -23 -21 -76 -22 -96 -1 -9 8 -26 14 -38 12
l-21 -3 24 -29 c20 -23 36 -30 77 -34 47 -4 54 -2 82 26 l30 30 0 146 c0 139
-1 146 -20 146 -12 0 -20 -7 -20 -16 0 -14 -1 -14 -16 0 -9 10 -33 16 -58 16
-34 0 -48 -6 -71 -30z m130 -33 c22 -32 19 -103 -5 -127 -48 -48 -110 -10
-110 68 0 34 5 54 18 64 35 31 73 29 97 -5z"/>
<path d="M2510 305 c0 -118 1 -125 20 -125 18 0 20 7 20 69 0 88 12 120 50
134 18 7 30 19 30 29 0 22 -33 24 -54 3 -8 -8 -17 -15 -20 -15 -3 0 -6 7 -6
15 0 8 -9 15 -20 15 -19 0 -20 -7 -20 -125z"/>
<path d="M2704 418 c-12 -5 -27 -21 -33 -34 -9 -21 -8 -24 9 -24 11 0 29 9 40
20 24 24 63 26 85 4 28 -29 14 -47 -47 -59 -69 -14 -98 -37 -98 -79 0 -37 7
-49 37 -65 29 -15 62 -14 93 4 22 12 27 11 42 -2 10 -8 24 -13 33 -10 17 7 21
37 5 37 -6 0 -10 37 -10 90 0 77 -3 93 -20 110 -22 22 -98 27 -136 8z m116
-143 c0 -37 -35 -67 -72 -63 -67 7 -58 61 13 78 54 13 59 11 59 -15z"/>
<path d="M4350 329 c0 -55 4 -109 10 -119 17 -31 72 -44 114 -26 20 8 36 11
36 5 0 -5 9 -9 20 -9 19 0 20 7 20 125 0 118 -1 125 -20 125 -19 0 -20 -7 -20
-90 0 -77 -3 -93 -20 -110 -25 -25 -55 -25 -80 0 -17 17 -20 33 -20 110 0 83
-1 90 -20 90 -19 0 -20 -7 -20 -101z"/>
<path d="M4637 398 c-31 -32 -31 -33 -10 -36 12 -2 31 6 42 17 25 25 63 27 86
5 28 -29 14 -47 -47 -59 -32 -6 -66 -20 -78 -30 -23 -21 -27 -72 -7 -98 19
-26 81 -33 113 -12 24 16 27 16 44 0 11 -10 26 -15 35 -12 17 7 21 37 5 37 -6
0 -10 35 -10 85 0 78 -2 88 -25 110 -19 19 -35 25 -70 25 -39 0 -52 -5 -78
-32z m133 -113 c0 -28 -24 -66 -46 -71 -38 -10 -69 -1 -72 22 -4 25 17 44 61
54 49 12 57 11 57 -5z"/>
<path d="M5782 414 c-92 -64 -53 -234 53 -234 17 0 41 7 53 16 21 15 22 14 22
-14 0 -16 -8 -36 -18 -45 -24 -22 -88 -22 -100 -1 -5 9 -18 14 -33 12 l-24 -3
32 -33 c25 -26 40 -32 72 -32 52 0 86 16 100 47 6 14 11 83 11 164 0 129 -1
140 -17 137 -10 -2 -17 -10 -15 -16 3 -16 -9 -15 -32 3 -26 19 -76 19 -104 -1z
m108 -44 c14 -14 20 -33 20 -65 0 -54 -25 -85 -69 -85 -38 0 -61 32 -61 85 0
22 7 51 16 63 19 28 67 29 94 2z"/>
<path d="M6020 304 c0 -122 0 -124 23 -124 21 0 22 3 18 57 -5 81 13 132 50
145 18 6 29 17 29 29 0 23 -32 26 -50 4 -15 -18 -30 -19 -30 -2 0 7 -9 13 -20
14 -19 2 -20 -4 -20 -123z"/>
<path d="M6633 415 c-18 -8 -33 -10 -33 -5 0 6 -9 10 -20 10 -19 0 -20 -7 -20
-120 0 -113 1 -120 20 -120 18 0 20 7 20 85 0 72 3 88 21 106 27 27 70 22 86
-11 7 -14 13 -60 13 -102 0 -72 2 -78 21 -78 20 0 21 4 17 105 -3 114 -11 131
-63 140 -17 3 -45 -2 -62 -10z"/>
<path d="M6915 423 c-11 -3 -26 -10 -34 -17 -11 -8 -15 -8 -18 2 -3 6 -13 12
-24 12 -18 0 -19 -8 -19 -120 l0 -120 25 0 c25 0 25 1 25 85 0 72 3 88 20 105
22 22 42 25 71 10 17 -9 19 -22 19 -105 l0 -95 26 0 26 0 -4 100 c-2 83 -6
103 -23 119 -22 22 -59 32 -90 24z"/>
<path d="M7143 415 c-41 -17 -63 -61 -63 -124 0 -41 5 -57 28 -81 35 -40 96
-51 141 -24 30 18 61 75 61 115 0 38 -29 89 -62 109 -38 23 -61 24 -105 5z
m96 -51 c25 -32 28 -100 5 -132 -20 -29 -74 -30 -100 -1 -29 32 -26 115 5 140
33 27 66 24 90 -7z"/>
<path d="M7534 422 c-17 -2 -26 -21 -49 -97 -15 -52 -31 -95 -34 -95 -3 0 -19
43 -35 95 -28 89 -31 95 -56 95 l-27 0 43 -110 c24 -61 44 -115 44 -120 0 -6
13 -10 29 -10 27 0 30 4 71 121 23 66 41 121 39 122 -2 2 -13 1 -25 -1z"/>
<path d="M7626 409 c-29 -22 -35 -49 -11 -49 8 0 24 9 35 20 24 24 63 26 85 4
29 -29 14 -48 -48 -60 -70 -14 -97 -36 -97 -78 0 -37 7 -49 37 -65 29 -15 58
-14 92 4 26 13 30 13 41 0 18 -22 50 -19 50 5 0 11 -4 20 -10 20 -6 0 -10 36
-10 89 0 85 -1 91 -26 110 -36 28 -102 28 -138 0z m124 -132 c0 -41 -27 -67
-71 -67 -70 0 -65 55 7 77 56 17 64 16 64 -10z"/>
<path d="M8183 416 c-79 -35 -85 -178 -11 -230 12 -9 42 -16 66 -16 142 0 148
231 7 255 -16 3 -44 -1 -62 -9z m94 -48 c33 -31 33 -109 -2 -143 -29 -30 -45
-31 -78 -5 -32 25 -42 69 -27 115 19 57 66 72 107 33z"/>
<path d="M8475 414 c-19 -10 -31 -11 -33 -5 -2 6 -12 11 -23 11 -18 0 -19 -8
-19 -120 0 -113 1 -120 20 -120 18 0 20 7 20 80 0 73 3 83 25 105 29 30 56 32
78 7 13 -14 17 -39 17 -105 0 -80 2 -87 20 -87 19 0 20 7 20 99 0 80 -3 103
-17 119 -25 28 -72 36 -108 16z"/>
<path d="M8715 423 c-35 -9 -55 -35 -55 -69 0 -39 23 -58 89 -73 24 -5 51 -17
60 -26 15 -15 14 -18 -8 -36 -30 -25 -66 -24 -91 1 -21 21 -60 27 -60 10 0 -6
11 -22 25 -35 35 -36 125 -36 160 0 33 32 33 79 2 99 -12 9 -46 20 -75 27 -56
12 -73 29 -52 54 16 19 74 19 90 0 15 -19 50 -20 50 -2 0 35 -81 65 -135 50z"/>
<path d="M6190 300 c0 -113 1 -120 20 -120 19 0 20 7 20 120 0 113 -1 120 -20
120 -19 0 -20 -7 -20 -120z"/>
<path d="M8018 300 c-3 -119 -3 -120 20 -120 22 0 22 2 22 120 0 112 -1 120
-19 120 -18 0 -20 -9 -23 -120z"/>
</g>
</svg>
